<svg version="1.1" xmlns="http://www.w3.org/2000/svg" viewBox="0 0 2150.69562347148 1608.1824735457342" width="2150.69562347148" height="1608.1824735457342">
  <!-- svg-source:excalidraw -->
  
  <defs>
    <style class="style-fonts">
      @font-face {
        font-family: "Virgil";
        src: url("https://excalidraw.com/Virgil.woff2");
      }
      @font-face {
        font-family: "Cascadia";
        src: url("https://excalidraw.com/Cascadia.woff2");
      }
      @font-face {
        font-family: "Assistant";
        src: url("https://excalidraw.com/Assistant-Regular.woff2");
      }
    </style>
    
  </defs>
  <rect x="0" y="0" width="2150.69562347148" height="1608.1824735457342" fill="#ffffff"></rect><g stroke-linecap="round" transform="translate(345.98902582791334 431.6910815810036) rotate(0 168 302.5)"><path d="M32 0 C90.05 1.77, 146.32 -0.16, 304 0 M32 0 C110.65 -0.68, 187.6 -0.89, 304 0 M304 0 C327.17 -0.91, 335.25 10.83, 336 32 M304 0 C327.62 0.29, 335.93 10.05, 336 32 M336 32 C334.2 238.86, 333.83 445.46, 336 573 M336 32 C335.64 226.32, 335.71 420.36, 336 573 M336 573 C335.85 592.88, 325.19 606.1, 304 605 M336 573 C336.11 596.32, 325.41 603.32, 304 605 M304 605 C205.41 604.24, 107.62 602.14, 32 605 M304 605 C210.15 606.74, 117.05 607.15, 32 605 M32 605 C12.25 604.57, 0.69 594.96, 0 573 M32 605 C8.8 605.65, 1 593.7, 0 573 M0 573 C0.5 370.87, 1.36 167.13, 0 32 M0 573 C1.4 359.85, 1.77 145.89, 0 32 M0 32 C-1.51 10.17, 10.43 1.93, 32 0 M0 32 C-1.01 9.65, 11.34 -1.15, 32 0" stroke="#1e1e1e" stroke-width="2" fill="none"></path></g><g stroke-linecap="round" transform="translate(354.98902582791334 504.6910815810036) rotate(0 158.5 260.5)"><path d="M32 0 C92.59 2.18, 154.56 1.27, 285 0 M32 0 C129.73 2.19, 225.71 2.66, 285 0 M285 0 C304.67 -0.63, 318.17 10.9, 317 32 M285 0 C308.56 0.32, 317.39 11.87, 317 32 M317 32 C315.79 175.3, 315.29 318.92, 317 489 M317 32 C317.05 189.12, 316.81 345.79, 317 489 M317 489 C318.62 511.99, 308.02 521.61, 285 521 M317 489 C318.37 509.13, 308.61 520.69, 285 521 M285 521 C192.16 520.77, 101.13 518.78, 32 521 M285 521 C232.46 519.84, 179.21 520.04, 32 521 M32 521 C10.32 521.57, 1.66 510.03, 0 489 M32 521 C12.47 519.47, 0.5 512.58, 0 489 M0 489 C2.06 355.11, 1.22 220.69, 0 32 M0 489 C0.16 358.54, -0.21 226.98, 0 32 M0 32 C0.62 9.14, 11 1.18, 32 0 M0 32 C-1.07 12.68, 10.85 0.04, 32 0" stroke="#2f9e44" stroke-width="2" fill="none"></path></g><g stroke-linecap="round" transform="translate(417.0423716584952 446.1910815810036) rotate(0 126.47332708470907 23)"><path d="M11.5 0 C68.92 -2.27, 127.38 -1.28, 241.45 0 M11.5 0 C98.81 -0.93, 185.16 -1.73, 241.45 0 M241.45 0 C250.33 1.95, 251.26 3.52, 252.95 11.5 M241.45 0 C247.45 -1.59, 255 3.53, 252.95 11.5 M252.95 11.5 C253.83 14.93, 254.76 21.43, 252.95 34.5 M252.95 11.5 C253.28 16.34, 251.9 22.35, 252.95 34.5 M252.95 34.5 C251.05 42.99, 247.12 44.25, 241.45 46 M252.95 34.5 C253.93 43.07, 248.26 44.61, 241.45 46 M241.45 46 C180.26 46.36, 118.83 45.5, 11.5 46 M241.45 46 C166.56 47.37, 91.05 46.19, 11.5 46 M11.5 46 C2.8 44.8, 0.01 42.58, 0 34.5 M11.5 46 C4.83 46.01, -0.2 40.39, 0 34.5 M0 34.5 C1.87 29.74, 1.17 22.55, 0 11.5 M0 34.5 C-0.96 27.77, -0.6 20.18, 0 11.5 M0 11.5 C-1.95 3.82, 2.57 -1.22, 11.5 0 M0 11.5 C-1.32 5.84, 2.92 1.64, 11.5 0" stroke="#1e1e1e" stroke-width="2" fill="none"></path></g><g transform="translate(430.60719593422357 699.0774378974475) rotate(0 80.57499694824219 12.5)"><text x="0" y="17.52" font-family="Virgil, Segoe UI Emoji" font-size="20px" fill="#2f9e44" text-anchor="start" style="white-space: pre;" direction="ltr" dominant-baseline="alphabetic">Lista talk tutti</text></g><g transform="translate(452.48763954999043 457.4657100996227) rotate(0 80.04166412353518 12.5)"><text x="0" y="17.52" font-family="Virgil, Segoe UI Emoji" font-size="20px" fill="#1e1e1e" text-anchor="start" style="white-space: pre;" direction="ltr" dominant-baseline="alphabetic">Barra di ricerca</text></g><g stroke-linecap="round" transform="translate(795.0319015960972 427.6616640918504) rotate(0 168 302.5)"><path d="M32 0 C104.45 -1.37, 174.66 -1.01, 304 0 M32 0 C98.37 1.15, 165.96 1.21, 304 0 M304 0 C327.03 -1.7, 335.46 9.92, 336 32 M304 0 C324.63 -1.05, 338.27 9.39, 336 32 M336 32 C335.04 199.98, 335.88 367.6, 336 573 M336 32 C336.26 207.67, 336.05 383.34, 336 573 M336 573 C337.59 593.57, 326.37 605.91, 304 605 M336 573 C335.44 596.46, 323.3 606.4, 304 605 M304 605 C238.72 605.29, 173.43 605.43, 32 605 M304 605 C234.89 606.43, 165.93 605.91, 32 605 M32 605 C12.18 606.24, -1.39 592.89, 0 573 M32 605 C10.18 607.06, -1.92 593.48, 0 573 M0 573 C0.23 438.74, 0.92 304.56, 0 32 M0 573 C-1 407.01, -0.56 242.02, 0 32 M0 32 C-1.22 9.67, 10.73 -1.63, 32 0 M0 32 C-0.71 10.99, 12.14 -0.84, 32 0" stroke="#1e1e1e" stroke-width="2" fill="none"></path></g><g stroke-linecap="round" transform="translate(804.0319015960972 500.6616640918504) rotate(0 158.5 260.5)"><path d="M32 0 C125.1 0.34, 218.28 0.13, 285 0 M32 0 C101.29 -0.86, 170.69 -2.2, 285 0 M285 0 C305.79 -0.75, 316.39 9.75, 317 32 M285 0 C308.61 -1.28, 317.23 10.37, 317 32 M317 32 C315.36 146.63, 315.41 260.7, 317 489 M317 32 C319.23 154.98, 319.41 278.11, 317 489 M317 489 C318.04 511.24, 305.85 522.85, 285 521 M317 489 C314.97 511.74, 304.92 520.29, 285 521 M285 521 C202.66 520.73, 121.34 519.33, 32 521 M285 521 C199.56 522.89, 115.47 523.25, 32 521 M32 521 C9.27 519.55, -0.43 512.12, 0 489 M32 521 C8.75 520.14, -1.2 509.94, 0 489 M0 489 C1.03 372.48, 0.44 257.35, 0 32 M0 489 C1.13 312.7, 0.49 135.38, 0 32 M0 32 C0.06 9.04, 10.05 0.28, 32 0 M0 32 C1.48 9.82, 11 -0.67, 32 0" stroke="#2f9e44" stroke-width="2" fill="none"></path></g><g stroke-linecap="round" transform="translate(806.0319015960972 442.1616640918504) rotate(0 156.5 23)"><path d="M11.5 0 C99.84 -0.41, 189.39 -1.57, 301.5 0 M11.5 0 C120.54 -2.4, 228.09 -2.05, 301.5 0 M301.5 0 C308.56 -0.91, 314.98 2.72, 313 11.5 M301.5 0 C309.4 -0.3, 311.86 1.89, 313 11.5 M313 11.5 C313.54 19.13, 312.43 28.87, 313 34.5 M313 11.5 C313.89 17.63, 313.62 24.98, 313 34.5 M313 34.5 C312.51 44.02, 307.4 47.22, 301.5 46 M313 34.5 C311.58 41.45, 309.67 45.38, 301.5 46 M301.5 46 C217.06 44.61, 134.56 45.47, 11.5 46 M301.5 46 C190.46 46.86, 77.76 45.85, 11.5 46 M11.5 46 C3.41 47.79, -1.67 41.42, 0 34.5 M11.5 46 C2.63 45.61, -1.06 41.76, 0 34.5 M0 34.5 C-0.04 29.12, 1.57 21.44, 0 11.5 M0 34.5 C-0.78 29.06, -0.14 23.8, 0 11.5 M0 11.5 C-0.62 4.12, 5.12 -0.73, 11.5 0 M0 11.5 C0.33 3.16, 1.86 -0.02, 11.5 0" stroke="#1e1e1e" stroke-width="2" fill="none"></path></g><g stroke-linecap="round" transform="translate(632.0223334453301 457.82771565430403) rotate(0 9.402643214731768 9.11869322731448)"><path d="M10.56 0.32 C12.35 0.34, 14.33 1.12, 15.71 2.42 C17.09 3.72, 18.66 6.2, 18.85 8.13 C19.04 10.05, 17.97 12.24, 16.86 13.96 C15.75 15.67, 14.09 17.94, 12.17 18.43 C10.24 18.93, 7.21 17.85, 5.3 16.95 C3.39 16.05, 1.53 14.73, 0.72 13.05 C-0.1 11.36, -0.12 8.75, 0.38 6.84 C0.89 4.93, 1.98 2.75, 3.74 1.59 C5.49 0.42, 9.77 0.06, 10.91 -0.13 C12.04 -0.32, 10.67 0.19, 10.55 0.44 M8.06 -0.18 C9.93 -0.58, 13.27 0.51, 14.97 1.62 C16.67 2.72, 17.62 4.74, 18.25 6.44 C18.88 8.15, 19.56 9.96, 18.77 11.85 C17.97 13.74, 15.24 16.85, 13.46 17.78 C11.69 18.72, 9.99 17.95, 8.11 17.44 C6.23 16.93, 3.5 16.07, 2.18 14.72 C0.87 13.38, 0.17 11.46, 0.22 9.4 C0.28 7.33, 1.15 3.87, 2.49 2.33 C3.82 0.79, 7.35 0.39, 8.25 0.15 C9.16 -0.1, 8.01 0.75, 7.9 0.85" stroke="#1e1e1e" stroke-width="2" fill="none"></path></g><g stroke-linecap="round"><g transform="translate(634.0018372800105 473.9711500841852) rotate(0 -2.7218177726854833 2.474379793350465)"><path d="M0.03 -0.19 C-0.85 0.72, -4.23 4.34, -5.11 5.17 M-0.38 0.47 C-1.3 1.31, -4.38 3.89, -5.22 4.66" stroke="#1e1e1e" stroke-width="4" fill="none"></path></g></g><mask></mask><g stroke-linecap="round" transform="translate(816.0563242693768 594.8773258706644) rotate(0 136.9545152362624 111.90186001011679)"><path d="M32 0 C114.28 -1.1, 195.15 -0.9, 241.91 0 M32 0 C109.48 1.42, 187.8 0.98, 241.91 0 M241.91 0 C264.2 -0.32, 275.89 9.23, 273.91 32 M241.91 0 C261.49 -2.16, 274.93 11.8, 273.91 32 M273.91 32 C274.15 92.36, 272.43 151.92, 273.91 191.8 M273.91 32 C273.15 84.53, 273.68 137.98, 273.91 191.8 M273.91 191.8 C275.25 212.42, 262.34 222.73, 241.91 223.8 M273.91 191.8 C273.61 214.16, 263.56 225.06, 241.91 223.8 M241.91 223.8 C162.93 221.66, 86.26 222.51, 32 223.8 M241.91 223.8 C196.38 221.27, 149.28 222.52, 32 223.8 M32 223.8 C10.19 224.15, -0.1 212.14, 0 191.8 M32 223.8 C11.28 224.91, -1.26 213.71, 0 191.8 M0 191.8 C-0.8 142.79, -1.64 95.45, 0 32 M0 191.8 C-1.46 154.14, -0.19 115.72, 0 32 M0 32 C-1.28 9.41, 12.19 -0.15, 32 0 M0 32 C-0.95 8.69, 12.54 1.97, 32 0" stroke="#1e1e1e" stroke-width="1" fill="none"></path></g><g stroke-linecap="round" transform="translate(1084.4784505104924 452.96890607471335) rotate(0 9.402643214731711 9.11869322731448)"><path d="M9.02 0.52 C10.78 0.27, 12.84 1.07, 14.37 2.18 C15.91 3.3, 17.64 5.38, 18.24 7.21 C18.84 9.04, 18.85 11.43, 17.97 13.18 C17.09 14.93, 14.86 16.84, 12.97 17.7 C11.07 18.56, 8.4 18.94, 6.58 18.33 C4.76 17.71, 3.13 15.78, 2.04 14.03 C0.95 12.28, -0.05 9.75, 0.03 7.84 C0.1 5.94, 1.06 3.89, 2.49 2.61 C3.92 1.33, 7.49 0.57, 8.59 0.17 C9.7 -0.23, 9.02 0.13, 9.13 0.23 M7.26 0.8 C9.26 0.54, 12.6 0.81, 14.37 1.68 C16.13 2.56, 17.25 4.26, 17.87 6.05 C18.49 7.84, 18.83 10.66, 18.1 12.43 C17.37 14.21, 15.28 15.79, 13.49 16.68 C11.71 17.57, 9.32 18.17, 7.4 17.77 C5.48 17.37, 3.1 15.73, 1.96 14.29 C0.82 12.85, 0.41 11.05, 0.55 9.14 C0.7 7.23, 1.58 4.41, 2.82 2.81 C4.06 1.2, 7.07 -0.1, 8.01 -0.48 C8.95 -0.86, 8.41 0.22, 8.46 0.54" stroke="#1e1e1e" stroke-width="2" fill="none"></path></g><g stroke-linecap="round"><g transform="translate(1086.4579543451725 469.1123405045945) rotate(0 -2.72181777268554 2.474379793350465)"><path d="M-0.11 0.27 C-0.99 1.16, -4.3 4.49, -5.13 5.21 M0.48 0.1 C-0.43 0.91, -4.32 3.93, -5.25 4.72" stroke="#1e1e1e" stroke-width="4" fill="none"></path></g></g><mask></mask><g transform="translate(841.1089794955224 619.92998109681) rotate(0 111.82499694824219 87.5)"><text x="0" y="17.52" font-family="Virgil, Segoe UI Emoji" font-size="20px" fill="#1e1e1e" text-anchor="start" style="white-space: pre;" direction="ltr" dominant-baseline="alphabetic">Dialog</text><text x="0" y="42.519999999999996" font-family="Virgil, Segoe UI Emoji" font-size="20px" fill="#1e1e1e" text-anchor="start" style="white-space: pre;" direction="ltr" dominant-baseline="alphabetic"></text><text x="0" y="67.52" font-family="Virgil, Segoe UI Emoji" font-size="20px" fill="#1e1e1e" text-anchor="start" style="white-space: pre;" direction="ltr" dominant-baseline="alphabetic">Vuoi Creare domande o</text><text x="0" y="92.52" font-family="Virgil, Segoe UI Emoji" font-size="20px" fill="#1e1e1e" text-anchor="start" style="white-space: pre;" direction="ltr" dominant-baseline="alphabetic">Rispondere</text><text x="0" y="117.52" font-family="Virgil, Segoe UI Emoji" font-size="20px" fill="#1e1e1e" text-anchor="start" style="white-space: pre;" direction="ltr" dominant-baseline="alphabetic"></text><text x="0" y="142.52" font-family="Virgil, Segoe UI Emoji" font-size="20px" fill="#1e1e1e" text-anchor="start" style="white-space: pre;" direction="ltr" dominant-baseline="alphabetic"></text><text x="0" y="167.52" font-family="Virgil, Segoe UI Emoji" font-size="20px" fill="#1e1e1e" text-anchor="start" style="white-space: pre;" direction="ltr" dominant-baseline="alphabetic">Rispondi Crea Annulla</text></g><g stroke-linecap="round" transform="translate(1275.679518764736 993.1824735457342) rotate(0 168 302.5)"><path d="M32 0 C140.54 -1.58, 247.63 -1.11, 304 0 M32 0 C121.95 0.12, 211.8 0.68, 304 0 M304 0 C324.5 -1.21, 335.59 11.36, 336 32 M304 0 C323.67 1.5, 333.95 11.23, 336 32 M336 32 C336.18 239.67, 336.39 449.27, 336 573 M336 32 C335.61 150.02, 335.58 268.06, 336 573 M336 573 C336.7 595.68, 325.55 605.64, 304 605 M336 573 C336.26 593.5, 323.11 603.59, 304 605 M304 605 C230.32 606.12, 157.38 606.47, 32 605 M304 605 C248.31 606.43, 193.05 606.3, 32 605 M32 605 C11.89 604.21, -0.66 594, 0 573 M32 605 C10.83 603.62, 1.41 595.15, 0 573 M0 573 C-0.72 413.53, -0.09 256.3, 0 32 M0 573 C0.24 429.66, 0.42 285.76, 0 32 M0 32 C0.86 10.59, 12 -0.62, 32 0 M0 32 C-0.84 12.06, 12.57 1.07, 32 0" stroke="#1e1e1e" stroke-width="2" fill="none"></path></g><g stroke-linecap="round" transform="translate(833.5931829276785 765.2353814084543) rotate(0 46.34741216836926 17.11931440453276)"><path d="M8.56 0 C32.48 -0.6, 50.75 -1.68, 84.14 0 M8.56 0 C24.99 -0.49, 40.99 -0.21, 84.14 0 M84.14 0 C90.74 -1.91, 94.36 1.84, 92.69 8.56 M84.14 0 C91.91 0.41, 91.95 1.95, 92.69 8.56 M92.69 8.56 C91.64 13.12, 90.83 17.18, 92.69 25.68 M92.69 8.56 C93.19 13.97, 92.45 18.83, 92.69 25.68 M92.69 25.68 C91.08 32.15, 87.85 33.1, 84.14 34.24 M92.69 25.68 C93.03 32.76, 91.97 32.02, 84.14 34.24 M84.14 34.24 C64.98 33.62, 47.54 33.4, 8.56 34.24 M84.14 34.24 C58.69 32.83, 33.66 32.88, 8.56 34.24 M8.56 34.24 C1.06 32.79, 1.21 30.84, 0 25.68 M8.56 34.24 C2.98 33.92, 0.02 31.37, 0 25.68 M0 25.68 C-1.28 20.34, -0.07 14.13, 0 8.56 M0 25.68 C-0.1 19.77, 0.07 13.39, 0 8.56 M0 8.56 C0.47 3.28, 4.12 -1.03, 8.56 0 M0 8.56 C0.51 4.03, 2.34 0.72, 8.56 0" stroke="#1e1e1e" stroke-width="1" fill="none"></path></g><g stroke-linecap="round" transform="translate(914.5967681588825 766.0704699159924) rotate(0 29.22809776383656 15.449137389456439)"><path d="M7.72 0 C15.33 0.14, 25.34 -1.41, 50.73 0 M7.72 0 C18.08 -0.08, 27.98 0.11, 50.73 0 M50.73 0 C57.07 -1.46, 58.05 1.02, 58.46 7.72 M50.73 0 C55.69 -0.43, 59.78 3.77, 58.46 7.72 M58.46 7.72 C58.1 13.54, 57.15 17.14, 58.46 23.17 M58.46 7.72 C58.52 12.76, 57.68 19.88, 58.46 23.17 M58.46 23.17 C59.97 30.27, 57.76 30.79, 50.73 30.9 M58.46 23.17 C57.01 29.62, 55.35 31.02, 50.73 30.9 M50.73 30.9 C37.15 30.79, 20.06 30.52, 7.72 30.9 M50.73 30.9 C39.55 30.77, 26.34 31.9, 7.72 30.9 M7.72 30.9 C2.32 29.94, 1.82 27.37, 0 23.17 M7.72 30.9 C0.34 29.29, 1.24 27.87, 0 23.17 M0 23.17 C0.94 19.29, 0.93 15.61, 0 7.72 M0 23.17 C0.74 19, -0.38 16.69, 0 7.72 M0 7.72 C-0.25 2.09, 2.94 0.92, 7.72 0 M0 7.72 C1.68 4.52, 2.48 1.31, 7.72 0" stroke="#1e1e1e" stroke-width="1" fill="none"></path></g><g stroke-linecap="round" transform="translate(976.3933177167082 765.2353814084543) rotate(0 36.326350077911115 18.789491419609135)"><path d="M9.39 0 C28.52 0.45, 51.74 1.37, 63.26 0 M9.39 0 C21.34 -0.47, 32.7 0.32, 63.26 0 M63.26 0 C70.82 -1.34, 70.67 3.15, 72.65 9.39 M63.26 0 C69.39 1.9, 74.73 1.3, 72.65 9.39 M72.65 9.39 C73.8 15.33, 70.88 24, 72.65 28.18 M72.65 9.39 C73.39 15.75, 73.52 22.17, 72.65 28.18 M72.65 28.18 C71.47 32.69, 69.63 39.4, 63.26 37.58 M72.65 28.18 C70.78 33.45, 67.38 37.88, 63.26 37.58 M63.26 37.58 C48.71 36.27, 36.03 35.89, 9.39 37.58 M63.26 37.58 C49.55 36.95, 37.54 36.24, 9.39 37.58 M9.39 37.58 C3.09 38.44, -1.4 33.87, 0 28.18 M9.39 37.58 C2.74 37.41, 1.43 32.7, 0 28.18 M0 28.18 C-1.79 24.33, -1.17 19.86, 0 9.39 M0 28.18 C0.13 23.39, 0.73 19.65, 0 9.39 M0 9.39 C0.47 1.43, 4.84 0.26, 9.39 0 M0 9.39 C2.02 1.46, 1.07 0.96, 9.39 0" stroke="#1e1e1e" stroke-width="1" fill="none"></path></g><g stroke-linecap="round" transform="translate(1350.0872549492208 10) rotate(0 168 302.5)"><path d="M32 0 C127.56 1.16, 222.49 1.41, 304 0 M32 0 C120.5 1.61, 209.43 1.82, 304 0 M304 0 C326.44 -1.61, 334.58 10.13, 336 32 M304 0 C327.32 -1.56, 336.67 8.71, 336 32 M336 32 C337.23 141.07, 337.16 251.12, 336 573 M336 32 C335.53 193.19, 335.63 353.75, 336 573 M336 573 C337.58 592.97, 323.34 603.56, 304 605 M336 573 C338.18 596.13, 325.68 603.44, 304 605 M304 605 C218.17 606.44, 130.6 607.19, 32 605 M304 605 C246.92 606.14, 190.48 606.41, 32 605 M32 605 C12.42 603.13, -0.9 593.73, 0 573 M32 605 C8.68 604.26, 0.5 596.13, 0 573 M0 573 C0.4 412.63, 0.06 250.38, 0 32 M0 573 C-0.09 408.49, -0.61 243.6, 0 32 M0 32 C-0.93 9.21, 8.91 -0.88, 32 0 M0 32 C-0.12 12.89, 8.76 1.19, 32 0" stroke="#1e1e1e" stroke-width="2" fill="none"></path></g><g stroke-linecap="round"><g transform="translate(1011.1849038566129 1075.7892545409923) rotate(0 120.36484398531036 75.35034948673893)"><path d="M-0.53 -0.06 C39.93 25.06, 201.58 124.55, 241.89 149.71 M1.4 -1.14 C41.88 24.19, 201.63 125.15, 241.55 150.72" stroke="#1e1e1e" stroke-width="2" fill="none"></path></g><g transform="translate(1011.1849038566129 1075.7892545409923) rotate(0 120.36484398531036 75.35034948673893)"><path d="M217.14 145.34 C222.53 148.6, 226.53 148.93, 241.55 150.72 M217.14 145.34 C225.69 146.39, 232.05 149.06, 241.55 150.72" stroke="#1e1e1e" stroke-width="2" fill="none"></path></g><g transform="translate(1011.1849038566129 1075.7892545409923) rotate(0 120.36484398531036 75.35034948673893)"><path d="M226.31 130.91 C229.49 137.41, 231.41 141.02, 241.55 150.72 M226.31 130.91 C231.98 136.51, 235.46 143.73, 241.55 150.72" stroke="#1e1e1e" stroke-width="2" fill="none"></path></g></g><mask></mask><g transform="translate(1027.67517033299 239.29373834536602) rotate(322.10110774888904 124.704978363502 22.244913270493942)"><text x="0" y="31.178470439924304" font-family="Virgil, Segoe UI Emoji" font-size="35.5918612327903px" fill="#1e1e1e" text-anchor="start" style="white-space: pre;" direction="ltr" dominant-baseline="alphabetic">Scrivi domande</text></g><g stroke-linecap="round" transform="translate(1298.9995873754444 1019.4403581881359) rotate(0 144.3072937122937 75.738921234092)"><path d="M32 0 C96.92 -1.03, 160.86 -1.38, 256.61 0 M32 0 C97.56 0.63, 162.43 1.58, 256.61 0 M256.61 0 C279.85 0.79, 289.49 12.19, 288.61 32 M256.61 0 C278.36 0.21, 287.43 10.6, 288.61 32 M288.61 32 C290.46 54, 289.57 78.56, 288.61 119.48 M288.61 32 C287.7 60.93, 287.83 87.43, 288.61 119.48 M288.61 119.48 C288.6 139.83, 279.56 151.79, 256.61 151.48 M288.61 119.48 C289.36 139.2, 276.76 152.23, 256.61 151.48 M256.61 151.48 C209.86 153.22, 159.31 153.46, 32 151.48 M256.61 151.48 C184.68 149.9, 113.77 150.67, 32 151.48 M32 151.48 C10.49 152.02, -1.93 142.33, 0 119.48 M32 151.48 C8.52 153.05, 1.22 142.51, 0 119.48 M0 119.48 C0.16 87.34, -1.67 51.7, 0 32 M0 119.48 C-0.51 88.81, -0.59 58.6, 0 32 M0 32 C1.38 8.77, 9.99 -1.07, 32 0 M0 32 C0.32 9.45, 8.88 -0.84, 32 0" stroke="#e03131" stroke-width="1" fill="none"></path></g><g transform="translate(1327.6817823990064 1072.3231552628272) rotate(0 76.39167022705078 12.5)"><text x="0" y="17.52" font-family="Virgil, Segoe UI Emoji" font-size="20px" fill="#e03131" text-anchor="start" style="white-space: pre;" direction="ltr" dominant-baseline="alphabetic">Testo domanda</text></g><g stroke-linecap="round" transform="translate(1307.0664547258214 1207.667263030258) rotate(0 67.67205388371542 21.511646267671097)"><path d="M10.76 0 C36.59 -0.93, 64.73 1.1, 124.59 0 M10.76 0 C55.29 -1.85, 97.97 -1.8, 124.59 0 M124.59 0 C131.16 0.44, 135.47 4.63, 135.34 10.76 M124.59 0 C129.78 1.4, 134.53 5.06, 135.34 10.76 M135.34 10.76 C133.54 16.49, 135.44 23.62, 135.34 32.27 M135.34 10.76 C135.78 17.93, 136.22 25.55, 135.34 32.27 M135.34 32.27 C134.64 40.58, 131.19 44.07, 124.59 43.02 M135.34 32.27 C134.08 39.99, 131.67 43.8, 124.59 43.02 M124.59 43.02 C91.56 41.63, 55.38 41.83, 10.76 43.02 M124.59 43.02 C100.93 43.55, 78.17 43.47, 10.76 43.02 M10.76 43.02 C5.47 42.91, -0.91 39.7, 0 32.27 M10.76 43.02 C2.89 44.76, -1.32 41.37, 0 32.27 M0 32.27 C-1.23 22.6, 0.24 15.17, 0 10.76 M0 32.27 C-0.57 27.53, 0.44 21.8, 0 10.76 M0 10.76 C-1.82 2.51, 2.42 -1.36, 10.76 0 M0 10.76 C2.15 2.73, 3.87 1.83, 10.76 0" stroke="#e03131" stroke-width="1" fill="none"></path></g><g transform="translate(1016.4638740203492 1172.078390612032) rotate(29.539428982523592 73.51667022705072 22.244913270493953)"><text x="0" y="31.178470439924304" font-family="Virgil, Segoe UI Emoji" font-size="35.5918612327903px" fill="#1e1e1e" text-anchor="start" style="white-space: pre;" direction="ltr" dominant-baseline="alphabetic">Risposte</text></g><g stroke-linecap="round" transform="translate(1457.647978599519 1212.1488560026896) rotate(0 47.50488550777368 21.959805564914234)"><path d="M10.98 0 C29.47 -1.32, 52.99 -0.06, 84.03 0 M10.98 0 C32.77 -0.96, 53.46 -0.35, 84.03 0 M84.03 0 C92.01 0.19, 96.98 4.12, 95.01 10.98 M84.03 0 C91.66 -0.07, 95.7 4.5, 95.01 10.98 M95.01 10.98 C96.78 17.34, 95.05 23.46, 95.01 32.94 M95.01 10.98 C95.02 18.84, 94.04 26.77, 95.01 32.94 M95.01 32.94 C96.18 41.91, 90.52 42.72, 84.03 43.92 M95.01 32.94 C93.05 41.19, 91.06 43.26, 84.03 43.92 M84.03 43.92 C55.56 42.91, 30.27 46.29, 10.98 43.92 M84.03 43.92 C68.59 45.14, 52.76 45.06, 10.98 43.92 M10.98 43.92 C5.39 43.17, -0.6 40.31, 0 32.94 M10.98 43.92 C1.49 42.53, 1.4 42.52, 0 32.94 M0 32.94 C0.56 25.62, 0.46 19.29, 0 10.98 M0 32.94 C-0.96 28.09, 0.53 22.02, 0 10.98 M0 10.98 C0.42 4.87, 2.89 -1.04, 10.98 0 M0 10.98 C-2.13 4.72, 2.03 -0.75, 10.98 0" stroke="#e03131" stroke-width="1" fill="none"></path></g><g stroke-linecap="round" transform="translate(1316.0296406706843 1286.543299345052) rotate(0 67.22389458647217 46.16040761604427)"><path d="M23.08 0 C47.86 -0.07, 76.49 -2.17, 111.37 0 M23.08 0 C55.44 0.55, 87 -0.57, 111.37 0 M111.37 0 C124.9 0.92, 133.03 7.04, 134.45 23.08 M111.37 0 C127.01 0.87, 134.97 9.41, 134.45 23.08 M134.45 23.08 C133.57 36.86, 136.05 49.19, 134.45 69.24 M134.45 23.08 C134.44 36.32, 135.64 51.71, 134.45 69.24 M134.45 69.24 C134.09 85.1, 125.42 93.67, 111.37 92.32 M134.45 69.24 C132.39 83.68, 128.25 94.06, 111.37 92.32 M111.37 92.32 C74.83 92.61, 40.68 92.75, 23.08 92.32 M111.37 92.32 C76.51 92.16, 40.13 93.51, 23.08 92.32 M23.08 92.32 C7.11 93.44, 0.31 83.35, 0 69.24 M23.08 92.32 C6.16 94.5, -1.05 85.17, 0 69.24 M0 69.24 C1.52 58.61, -1.26 44.7, 0 23.08 M0 69.24 C0.1 51.39, 0.57 32.39, 0 23.08 M0 23.08 C0.75 6.87, 6.94 -0.59, 23.08 0 M0 23.08 C-1.03 7.9, 8.17 -1.56, 23.08 0" stroke="#e03131" stroke-width="1" fill="none"></path></g><g stroke-linecap="round" transform="translate(1466.611164544382 1291.9212109119699) rotate(0 48.84936339950309 43.02329253534219)"><path d="M21.51 0 C42.95 1.16, 65.63 -0.15, 76.19 0 M21.51 0 C39.66 -0.24, 58.49 0.41, 76.19 0 M76.19 0 C89.17 -0.15, 98.63 7.28, 97.7 21.51 M76.19 0 C90.16 1.53, 99.53 5.52, 97.7 21.51 M97.7 21.51 C96.26 36, 96.25 50.99, 97.7 64.53 M97.7 21.51 C96.99 29.95, 98.23 38.47, 97.7 64.53 M97.7 64.53 C96.48 77.51, 89.69 85.65, 76.19 86.05 M97.7 64.53 C99.73 79.25, 89.67 84.36, 76.19 86.05 M76.19 86.05 C55.23 85.35, 37.46 85.07, 21.51 86.05 M76.19 86.05 C59.19 85.41, 41.88 86.55, 21.51 86.05 M21.51 86.05 C5.45 87.08, -0.03 79.44, 0 64.53 M21.51 86.05 C5.48 88.29, -0.39 78.37, 0 64.53 M0 64.53 C-1.83 48.35, -0.64 35.24, 0 21.51 M0 64.53 C-0.89 56.57, -0.54 47.11, 0 21.51 M0 21.51 C-0.57 8.6, 5.18 -1.61, 21.51 0 M0 21.51 C0.82 9.41, 6.39 -1.13, 21.51 0" stroke="#e03131" stroke-width="1" fill="none"></path></g><g transform="translate(1371.6013935288347 1226.4899535144702) rotate(0 0.00004999999998744897 0.00004999999998744897)" stroke="none"><path fill="#e03131" d="M 1.57,-1.57 Q 1.57,-1.57 1.77,-1.27 1.98,-0.98 2.09,-0.64 2.20,-0.29 2.19,0.05 2.18,0.41 2.05,0.75 1.93,1.09 1.70,1.37 1.48,1.65 1.18,1.84 0.87,2.04 0.52,2.12 0.18,2.21 -0.17,2.18 -0.53,2.15 -0.86,2.01 -1.19,1.87 -1.46,1.63 -1.73,1.39 -1.90,1.07 -2.08,0.76 -2.15,0.41 -2.21,0.05 -2.17,-0.29 -2.12,-0.65 -1.96,-0.97 -1.80,-1.29 -1.54,-1.54 -1.29,-1.80 -0.97,-1.96 -0.65,-2.12 -0.29,-2.17 0.06,-2.21 0.41,-2.15 0.76,-2.08 1.07,-1.90 1.39,-1.73 1.63,-1.46 1.87,-1.19 2.01,-0.86 2.15,-0.53 2.18,-0.17 2.21,0.18 2.12,0.52 2.03,0.87 1.84,1.18 1.65,1.48 1.37,1.70 1.09,1.93 0.75,2.05 0.41,2.18 0.05,2.19 -0.30,2.20 -0.64,2.09 -0.98,1.98 -1.27,1.77 -1.57,1.56 -1.57,1.57 -1.57,1.57 -1.73,1.35 -1.90,1.14 -2.01,0.90 -2.12,0.66 -2.16,0.39 -2.21,0.13 -2.20,-0.13 -2.18,-0.40 -2.10,-0.65 -2.02,-0.91 -1.88,-1.14 -1.74,-1.36 -1.55,-1.55 -1.36,-1.74 -1.14,-1.88 -0.91,-2.02 -0.65,-2.10 -0.40,-2.18 -0.13,-2.20 0.13,-2.21 0.39,-2.16 0.66,-2.12 0.90,-2.01 1.14,-1.90 1.35,-1.73 1.57,-1.57 1.57,-1.57 L 1.57,-1.57 Z"></path></g><g transform="translate(1371.6013935288347 1226.4899535144702) rotate(0 0.00004999999998744897 0.00004999999998744897)" stroke="none"><path fill="#e03131" d="M 1.57,-1.57 Q 1.57,-1.57 1.77,-1.27 1.98,-0.98 2.09,-0.64 2.20,-0.29 2.19,0.05 2.18,0.41 2.05,0.75 1.93,1.09 1.70,1.37 1.48,1.65 1.18,1.84 0.87,2.04 0.52,2.12 0.18,2.21 -0.17,2.18 -0.53,2.15 -0.86,2.01 -1.19,1.87 -1.46,1.63 -1.73,1.39 -1.90,1.07 -2.08,0.76 -2.15,0.41 -2.21,0.05 -2.17,-0.29 -2.12,-0.65 -1.96,-0.97 -1.80,-1.29 -1.54,-1.54 -1.29,-1.80 -0.97,-1.96 -0.65,-2.12 -0.29,-2.17 0.06,-2.21 0.41,-2.15 0.76,-2.08 1.07,-1.90 1.39,-1.73 1.63,-1.46 1.87,-1.19 2.01,-0.86 2.15,-0.53 2.18,-0.17 2.21,0.18 2.12,0.52 2.03,0.87 1.84,1.18 1.65,1.48 1.37,1.70 1.09,1.93 0.75,2.05 0.41,2.18 0.05,2.19 -0.30,2.20 -0.64,2.09 -0.98,1.98 -1.27,1.77 -1.57,1.56 -1.57,1.57 -1.57,1.57 -1.73,1.35 -1.90,1.14 -2.01,0.90 -2.12,0.66 -2.16,0.39 -2.21,0.13 -2.20,-0.13 -2.18,-0.40 -2.10,-0.65 -2.02,-0.91 -1.88,-1.14 -1.74,-1.36 -1.55,-1.55 -1.36,-1.74 -1.14,-1.88 -0.91,-2.02 -0.65,-2.10 -0.40,-2.18 -0.13,-2.20 0.13,-2.21 0.39,-2.16 0.66,-2.12 0.90,-2.01 1.14,-1.90 1.35,-1.73 1.57,-1.57 1.57,-1.57 L 1.57,-1.57 Z"></path></g><g transform="translate(1355.4676588280813 1238.142095242792) rotate(0 16.58189399799653 -12.548460322808126)" stroke="none"><path fill="#e03131" d="M -1.58,-1.11 Q -1.58,-1.11 0.28,-3.64 2.15,-6.16 4.05,-8.31 5.94,-10.46 7.76,-12.62 9.58,-14.77 11.98,-17.04 14.37,-19.30 16.48,-20.81 18.58,-22.31 20.82,-23.48 23.06,-24.66 24.24,-25.28 25.43,-25.89 27.30,-26.01 29.18,-26.13 30.19,-25.07 31.20,-24.01 31.88,-22.06 32.56,-20.11 33.19,-18.12 33.83,-16.13 34.12,-13.53 34.41,-10.93 34.51,-8.82 34.61,-6.71 34.75,-5.31 34.90,-3.91 33.34,-1.13 31.78,1.65 31.46,1.76 31.14,1.87 30.81,1.88 30.47,1.89 30.15,1.79 29.83,1.69 29.56,1.49 29.29,1.29 29.09,1.01 28.90,0.74 28.80,0.42 28.71,0.10 28.72,-0.23 28.73,-0.57 28.85,-0.88 28.97,-1.20 29.18,-1.46 29.39,-1.72 29.68,-1.90 29.96,-2.08 30.29,-2.15 30.61,-2.23 30.95,-2.20 31.28,-2.17 31.59,-2.04 31.90,-1.90 32.15,-1.68 32.40,-1.45 32.56,-1.16 32.72,-0.86 32.78,-0.53 32.84,-0.20 32.80,0.12 32.75,0.46 32.60,0.76 32.45,1.06 32.21,1.29 31.97,1.53 31.66,1.67 31.36,1.82 31.03,1.86 30.69,1.91 30.36,1.84 30.03,1.78 29.74,1.61 29.45,1.44 29.23,1.19 29.01,0.94 28.88,0.63 28.75,0.32 28.72,-0.01 28.70,-0.34 28.78,-0.67 28.86,-1.00 29.05,-1.28 29.23,-1.56 29.49,-1.77 29.76,-1.98 29.76,-1.98 29.76,-1.98 30.51,-2.87 31.25,-3.76 31.28,-5.13 31.31,-6.50 31.14,-8.49 30.98,-10.47 30.64,-12.66 30.30,-14.84 29.44,-16.83 28.59,-18.82 27.63,-20.84 26.68,-22.86 25.53,-22.52 24.37,-22.17 22.32,-21.07 20.27,-19.97 18.35,-18.56 16.44,-17.15 14.21,-14.97 11.99,-12.80 10.22,-10.57 8.46,-8.34 6.75,-6.24 5.05,-4.13 3.32,-1.51 1.58,1.11 1.43,1.28 1.27,1.45 1.08,1.59 0.88,1.72 0.67,1.80 0.45,1.88 0.21,1.91 -0.01,1.93 -0.24,1.90 -0.47,1.87 -0.69,1.79 -0.91,1.70 -1.10,1.57 -1.29,1.44 -1.44,1.26 -1.60,1.09 -1.70,0.88 -1.81,0.67 -1.87,0.44 -1.92,0.22 -1.92,-0.01 -1.92,-0.24 -1.86,-0.47 -1.80,-0.69 -1.69,-0.90 -1.58,-1.11 -1.58,-1.11 L -1.58,-1.11 Z"></path></g><g transform="translate(1367.1198005564033 1226.4899535144702) rotate(0 10.75582313383552 2.240796486215743)" stroke="none"><path fill="#e03131" d="M 0.45,-1.97 Q 0.45,-1.97 3.78,-1.11 7.11,-0.24 9.55,0.41 12.00,1.06 14.30,1.62 16.61,2.17 18.71,2.37 20.81,2.58 21.09,2.66 21.36,2.75 21.60,2.92 21.83,3.09 22.00,3.32 22.16,3.56 22.25,3.84 22.33,4.11 22.32,4.40 22.31,4.69 22.21,4.96 22.11,5.23 21.92,5.45 21.74,5.68 21.50,5.83 21.25,5.98 20.97,6.05 20.69,6.12 20.41,6.09 20.12,6.07 19.85,5.95 19.59,5.84 19.38,5.64 19.16,5.45 19.02,5.20 18.88,4.94 18.83,4.66 18.78,4.38 18.82,4.09 18.86,3.81 18.99,3.55 19.12,3.29 19.32,3.09 19.53,2.89 19.79,2.76 20.05,2.63 20.33,2.60 20.62,2.56 20.90,2.62 21.19,2.67 21.44,2.82 21.69,2.96 21.88,3.18 22.07,3.39 22.18,3.66 22.29,3.92 22.32,4.21 22.34,4.50 22.27,4.78 22.19,5.06 22.04,5.30 21.88,5.54 21.65,5.72 21.43,5.90 21.16,6.00 20.88,6.09 20.60,6.10 20.31,6.11 20.31,6.11 20.31,6.11 18.12,5.69 15.93,5.28 13.57,4.82 11.21,4.36 8.75,3.85 6.28,3.33 2.91,2.65 -0.45,1.97 -0.68,1.89 -0.91,1.80 -1.11,1.67 -1.32,1.53 -1.48,1.35 -1.65,1.17 -1.76,0.96 -1.88,0.74 -1.94,0.51 -2.00,0.27 -2.01,0.02 -2.01,-0.21 -1.96,-0.45 -1.90,-0.69 -1.79,-0.90 -1.68,-1.12 -1.52,-1.31 -1.36,-1.49 -1.16,-1.63 -0.96,-1.78 -0.74,-1.87 -0.51,-1.96 -0.27,-1.99 -0.02,-2.02 0.21,-2.00 0.45,-1.97 0.45,-1.97 L 0.45,-1.97 Z"></path></g><g transform="translate(1479.1596248671901 1245.3126439986825) rotate(0 7.61870805313356 -8.066867350376697)" stroke="none"><path fill="#e03131" d="M -2.13,-0.42 Q -2.13,-0.42 -1.91,-1.72 -1.70,-3.02 -1.34,-4.42 -0.98,-5.83 -0.51,-7.61 -0.04,-9.39 0.78,-11.53 1.61,-13.68 2.14,-15.14 2.67,-16.60 3.46,-18.28 4.25,-19.95 5.46,-21.58 6.67,-23.21 7.77,-24.30 8.88,-25.38 10.40,-26.01 11.93,-26.64 13.95,-26.81 15.98,-26.97 17.95,-27.13 19.91,-27.29 20.97,-26.61 22.02,-25.94 22.42,-23.69 22.81,-21.44 22.88,-20.32 22.95,-19.20 22.04,-17.41 21.13,-15.62 19.83,-14.37 18.53,-13.13 16.81,-12.08 15.08,-11.04 13.07,-10.53 11.06,-10.02 9.32,-9.64 7.57,-9.25 6.19,-9.01 4.81,-8.76 4.06,-8.88 3.30,-9.00 3.01,-8.99 2.72,-8.98 2.44,-9.05 2.16,-9.11 1.90,-9.24 1.64,-9.37 1.41,-9.55 1.19,-9.74 1.02,-9.98 0.85,-10.21 0.74,-10.48 0.63,-10.75 0.59,-11.04 0.55,-11.32 0.58,-11.61 0.61,-11.90 0.70,-12.18 0.80,-12.45 0.96,-12.69 1.12,-12.94 1.33,-13.13 1.54,-13.33 1.80,-13.47 2.05,-13.61 2.33,-13.69 2.61,-13.76 4.51,-13.93 6.41,-14.09 7.92,-14.10 9.43,-14.10 11.36,-14.01 13.28,-13.92 15.14,-13.87 16.99,-13.82 18.51,-13.58 20.03,-13.34 21.34,-12.69 22.64,-12.04 23.44,-10.37 24.24,-8.70 24.45,-7.22 24.66,-5.74 24.38,-3.65 24.11,-1.55 23.34,0.69 22.56,2.94 21.02,4.87 19.48,6.81 17.65,7.97 15.82,9.14 13.86,9.67 11.91,10.19 10.03,10.39 8.15,10.59 6.32,10.67 4.49,10.75 2.31,10.46 0.13,10.17 -1.60,9.83 -3.34,9.50 -4.99,9.37 -6.65,9.24 -6.96,9.15 -7.27,9.06 -7.53,8.87 -7.80,8.69 -7.99,8.43 -8.18,8.17 -8.28,7.86 -8.38,7.55 -8.37,7.23 -8.37,6.91 -8.26,6.60 -8.15,6.30 -7.95,6.05 -7.75,5.79 -7.48,5.61 -7.21,5.44 -6.90,5.36 -6.59,5.27 -6.27,5.30 -5.95,5.32 -5.65,5.44 -5.35,5.57 -5.11,5.78 -4.86,5.99 -4.70,6.27 -4.54,6.55 -4.47,6.87 -4.41,7.18 -4.45,7.50 -4.49,7.82 -4.63,8.11 -4.77,8.40 -4.99,8.64 -5.22,8.87 -5.51,9.01 -5.80,9.16 -6.11,9.21 -6.43,9.25 -6.75,9.20 -7.07,9.14 -7.35,8.99 -7.63,8.83 -7.85,8.59 -8.07,8.35 -8.20,8.06 -8.33,7.76 -8.36,7.44 -8.39,7.12 -8.32,6.81 -8.25,6.49 -8.07,6.22 -7.90,5.95 -7.65,5.74 -7.41,5.53 -7.10,5.42 -6.80,5.31 -6.48,5.29 -6.16,5.28 -6.16,5.28 -6.16,5.28 -4.36,5.58 -2.56,5.88 -1.01,6.25 0.52,6.63 2.43,6.79 4.34,6.95 6.06,6.88 7.78,6.81 9.41,6.67 11.04,6.52 12.48,6.23 13.93,5.94 15.25,5.19 16.58,4.43 17.61,3.06 18.64,1.69 19.06,-0.18 19.48,-2.06 19.60,-3.63 19.72,-5.20 19.43,-7.06 19.13,-8.92 18.06,-9.20 16.98,-9.47 15.14,-9.41 13.30,-9.35 11.39,-9.25 9.48,-9.15 8.02,-9.13 6.56,-9.11 4.93,-9.05 3.30,-9.00 3.01,-8.99 2.72,-8.98 2.44,-9.05 2.16,-9.11 1.90,-9.24 1.64,-9.37 1.41,-9.55 1.19,-9.74 1.02,-9.98 0.85,-10.21 0.74,-10.48 0.63,-10.75 0.59,-11.04 0.55,-11.32 0.58,-11.61 0.61,-11.90 0.70,-12.18 0.80,-12.45 0.96,-12.69 1.12,-12.94 1.33,-13.13 1.54,-13.33 1.80,-13.47 2.05,-13.61 2.33,-13.69 2.61,-13.76 3.44,-13.52 4.27,-13.28 5.39,-13.40 6.52,-13.52 8.25,-13.99 9.99,-14.46 11.31,-14.76 12.63,-15.06 13.90,-15.91 15.16,-16.76 16.05,-17.55 16.93,-18.34 17.48,-19.71 18.04,-21.08 18.65,-21.94 19.26,-22.81 17.81,-22.78 16.35,-22.74 13.94,-22.47 11.52,-22.20 10.67,-21.53 9.81,-20.85 8.84,-19.56 7.87,-18.26 7.16,-16.69 6.45,-15.11 5.87,-13.78 5.30,-12.45 4.75,-10.44 4.19,-8.44 3.83,-6.52 3.48,-4.59 3.10,-3.36 2.73,-2.13 2.43,-0.85 2.13,0.42 2.05,0.67 1.96,0.92 1.83,1.14 1.69,1.36 1.50,1.55 1.31,1.73 1.08,1.86 0.86,1.99 0.60,2.07 0.35,2.14 0.09,2.15 -0.16,2.16 -0.42,2.11 -0.68,2.06 -0.91,1.95 -1.15,1.84 -1.35,1.67 -1.56,1.51 -1.72,1.30 -1.87,1.09 -1.98,0.85 -2.08,0.61 -2.13,0.35 -2.17,0.09 -2.15,-0.16 -2.13,-0.42 -2.13,-0.42 L -2.13,-0.42 Z"></path></g><g transform="translate(1388.6314468240744 1317.9144501520725) rotate(0 -17.926371889725942 5.8260708641607835)" stroke="none"><path fill="#e03131" d="M -1.15,1.61 Q -1.15,1.61 -2.89,0.26 -4.63,-1.09 -6.17,-1.52 -7.72,-1.95 -9.14,-2.11 -10.55,-2.26 -12.15,-2.33 -13.75,-2.40 -15.20,-2.40 -16.65,-2.40 -18.32,-1.98 -19.98,-1.57 -21.53,-1.09 -23.08,-0.61 -25.15,0.45 -27.22,1.53 -28.77,2.15 -30.32,2.77 -31.15,3.63 -31.97,4.49 -31.13,5.70 -30.29,6.91 -27.39,8.29 -24.50,9.67 -19.71,11.07 -14.91,12.46 -12.36,13.09 -9.80,13.71 -8.39,13.60 -6.98,13.49 -6.70,13.53 -6.42,13.58 -6.17,13.71 -5.92,13.84 -5.73,14.04 -5.53,14.25 -5.41,14.50 -5.29,14.76 -5.25,15.04 -5.22,15.32 -5.28,15.60 -5.34,15.87 -5.48,16.12 -5.63,16.36 -5.84,16.54 -6.05,16.73 -6.32,16.83 -6.58,16.94 -6.86,16.96 -7.14,16.98 -7.42,16.90 -7.69,16.83 -7.92,16.67 -8.16,16.52 -8.33,16.29 -8.50,16.07 -8.60,15.80 -8.69,15.53 -8.69,15.25 -8.69,14.97 -8.61,14.70 -8.52,14.43 -8.35,14.21 -8.18,13.98 -7.95,13.82 -7.71,13.66 -7.44,13.58 -7.17,13.50 -6.89,13.52 -6.61,13.53 -6.34,13.63 -6.08,13.73 -5.86,13.91 -5.64,14.10 -5.50,14.34 -5.35,14.58 -5.29,14.85 -5.22,15.13 -5.25,15.41 -5.28,15.69 -5.40,15.95 -5.51,16.21 -5.71,16.41 -5.90,16.62 -6.15,16.76 -6.40,16.89 -6.68,16.94 -6.95,16.99 -6.95,16.99 -6.95,16.99 -8.71,16.90 -10.47,16.82 -13.15,16.27 -15.82,15.72 -20.91,14.37 -26.00,13.01 -29.38,11.55 -32.77,10.10 -34.82,8.46 -36.87,6.82 -35.72,4.17 -34.58,1.52 -33.13,0.39 -31.68,-0.73 -30.31,-1.15 -28.94,-1.58 -26.57,-2.97 -24.20,-4.35 -22.57,-4.81 -20.94,-5.27 -18.76,-5.85 -16.58,-6.43 -15.05,-6.35 -13.53,-6.26 -11.76,-6.13 -9.99,-6.01 -8.33,-5.69 -6.68,-5.38 -4.63,-4.72 -2.58,-4.06 -0.71,-2.83 1.15,-1.61 1.33,-1.45 1.50,-1.29 1.64,-1.09 1.77,-0.89 1.85,-0.66 1.93,-0.44 1.96,-0.20 1.98,0.03 1.95,0.26 1.92,0.50 1.83,0.72 1.74,0.95 1.60,1.14 1.46,1.34 1.28,1.49 1.10,1.65 0.88,1.76 0.67,1.86 0.44,1.92 0.20,1.97 -0.03,1.97 -0.27,1.96 -0.50,1.90 -0.73,1.84 -0.94,1.73 -1.15,1.61 -1.15,1.61 L -1.15,1.61 Z"></path></g><g transform="translate(1497.085996756916 1344.8040079866612) rotate(0 9.859504539349246 -17.47821259248269)" stroke="none"><path fill="#e03131" d="M -1.90,0 Q -1.90,0 -1.82,-3.09 -1.74,-6.18 -1.42,-10.64 -1.10,-15.09 -0.16,-18.90 0.78,-22.71 1.45,-24.82 2.13,-26.93 2.64,-28.83 3.15,-30.73 3.56,-32.15 3.97,-33.57 4.97,-34.86 5.97,-36.14 7.83,-36.21 9.69,-36.27 12.61,-35.02 15.52,-33.77 18.22,-32.46 20.92,-31.14 23.37,-29.77 25.83,-28.41 27.48,-27.29 29.13,-26.18 30.47,-24.22 31.81,-22.25 32.48,-20.86 33.15,-19.47 33.18,-17.33 33.20,-15.18 32.93,-13.84 32.67,-12.51 30.70,-10.70 28.73,-8.90 26.86,-7.72 25.00,-6.55 22.69,-5.08 20.38,-3.61 17.23,-2.16 14.07,-0.72 10.32,0.15 6.56,1.04 3.40,1.40 0.23,1.76 -2.47,1.64 -5.17,1.53 -7.04,1.53 -8.91,1.54 -10.41,1.59 -11.91,1.64 -12.17,1.60 -12.43,1.55 -12.66,1.42 -12.89,1.29 -13.07,1.10 -13.25,0.90 -13.36,0.66 -13.47,0.42 -13.49,0.15 -13.51,-0.10 -13.45,-0.36 -13.39,-0.62 -13.25,-0.84 -13.11,-1.07 -12.90,-1.23 -12.70,-1.40 -12.45,-1.50 -12.20,-1.59 -11.94,-1.60 -11.67,-1.61 -11.42,-1.53 -11.17,-1.46 -10.95,-1.30 -10.73,-1.15 -10.58,-0.94 -10.42,-0.72 -10.34,-0.47 -10.26,-0.22 -10.26,0.04 -10.27,0.30 -10.36,0.55 -10.45,0.80 -10.61,1.01 -10.78,1.22 -11.00,1.36 -11.22,1.51 -11.48,1.57 -11.73,1.64 -12.00,1.62 -12.26,1.60 -12.51,1.50 -12.75,1.39 -12.95,1.22 -13.15,1.04 -13.28,0.82 -13.41,0.59 -13.46,0.33 -13.52,0.07 -13.48,-0.19 -13.45,-0.45 -13.33,-0.69 -13.22,-0.93 -13.03,-1.12 -12.85,-1.30 -12.61,-1.42 -12.38,-1.54 -12.11,-1.58 -11.85,-1.62 -11.85,-1.62 -11.85,-1.62 -10.35,-1.51 -8.84,-1.41 -6.95,-1.32 -5.06,-1.23 -2.58,-1.14 -0.09,-1.04 2.90,-1.41 5.89,-1.78 9.35,-2.62 12.81,-3.46 15.72,-4.85 18.64,-6.24 20.89,-7.80 23.15,-9.36 24.76,-10.46 26.37,-11.57 28.02,-13.43 29.67,-15.29 29.78,-16.79 29.90,-18.29 29.57,-19.41 29.24,-20.54 28.24,-22.06 27.23,-23.58 25.78,-24.60 24.34,-25.62 21.93,-26.86 19.52,-28.09 16.83,-29.26 14.15,-30.42 10.65,-31.41 7.15,-32.41 6.60,-31.17 6.04,-29.93 5.50,-28.00 4.96,-26.07 4.37,-24.03 3.78,-21.99 2.96,-18.44 2.13,-14.89 1.94,-10.54 1.74,-6.18 1.82,-3.09 1.90,0 1.87,0.22 1.84,0.45 1.76,0.67 1.68,0.88 1.55,1.07 1.42,1.26 1.25,1.41 1.08,1.56 0.87,1.67 0.67,1.77 0.45,1.83 0.22,1.88 -0.00,1.88 -0.22,1.88 -0.45,1.83 -0.67,1.77 -0.87,1.67 -1.08,1.56 -1.25,1.41 -1.42,1.26 -1.55,1.07 -1.68,0.88 -1.76,0.66 -1.84,0.45 -1.87,0.22 -1.90,-0.00 -1.90,-0.00 L -1.90,0 Z"></path></g><g stroke-linecap="round" transform="translate(1309.7554105092804 1489.111301698955) rotate(0 130.414355497756 27.33771713183205)"><path d="M13.67 0 C67.56 -1.47, 122.6 -1.96, 247.16 0 M13.67 0 C94.98 -1.58, 175.35 -0.8, 247.16 0 M247.16 0 C255.45 1.26, 262.08 3.02, 260.83 13.67 M247.16 0 C255.53 -1.34, 261.48 3.26, 260.83 13.67 M260.83 13.67 C259.41 21.72, 260.98 32.3, 260.83 41.01 M260.83 13.67 C260.46 20.41, 261.77 26.96, 260.83 41.01 M260.83 41.01 C260.13 48.43, 255.44 52.91, 247.16 54.68 M260.83 41.01 C259.32 48.11, 256.87 53.7, 247.16 54.68 M247.16 54.68 C198.72 52.42, 152.45 52.83, 13.67 54.68 M247.16 54.68 C160.52 53.67, 75.38 52.64, 13.67 54.68 M13.67 54.68 C6.43 56.53, -1.17 49.95, 0 41.01 M13.67 54.68 C4.57 53.74, 1.82 47.85, 0 41.01 M0 41.01 C-1.29 34.68, -0.03 30.7, 0 13.67 M0 41.01 C-1.16 31.64, 0.11 24.29, 0 13.67 M0 13.67 C-1.43 3.33, 3.37 -1.65, 13.67 0 M0 13.67 C0.12 2.96, 4.62 -2.23, 13.67 0" stroke="#1971c2" stroke-width="1" fill="none"></path></g><g transform="translate(1344.7118356942458 1512.4155851555986) rotate(0 86.41666412353516 12.5)"><text x="0" y="17.52" font-family="Virgil, Segoe UI Emoji" font-size="20px" fill="#1971c2" text-anchor="start" style="white-space: pre;" direction="ltr" dominant-baseline="alphabetic">Tempo rimandente</text></g><g stroke-linecap="round" transform="translate(1372.8746004172217 32.35162662955452) rotate(0 147.9987037139524 83.11540647063316)"><path d="M32 0 C77.28 2.14, 124.61 -0.43, 264 0 M32 0 C124.94 1.21, 217.02 0.41, 264 0 M264 0 C283.75 -0.37, 297.89 11.52, 296 32 M264 0 C286.72 -0.11, 296.76 11.29, 296 32 M296 32 C296.92 72.01, 295.17 107.96, 296 134.23 M296 32 C295.02 61.84, 294.63 90.78, 296 134.23 M296 134.23 C296.05 153.7, 287.21 166.52, 264 166.23 M296 134.23 C297.02 155.03, 285.95 167.7, 264 166.23 M264 166.23 C186.41 164.74, 112.16 167.06, 32 166.23 M264 166.23 C201.61 165.04, 138.71 165.81, 32 166.23 M32 166.23 C8.92 165.52, -0.92 154.58, 0 134.23 M32 166.23 C9.11 168.32, 0.79 155.14, 0 134.23 M0 134.23 C2.2 99.34, -0.29 68.31, 0 32 M0 134.23 C1.01 93.05, 1.33 53.2, 0 32 M0 32 C1.54 10.93, 8.91 0.29, 32 0 M0 32 C-0.18 12.63, 10.03 -0.14, 32 0" stroke="#1e1e1e" stroke-width="4" fill="none"></path></g><g transform="translate(1453.9368835234322 101.92599118007985) rotate(0 69.3499984741211 25)"><text x="0" y="17.52" font-family="Virgil, Segoe UI Emoji" font-size="20px" fill="#1e1e1e" text-anchor="start" style="white-space: pre;" direction="ltr" dominant-baseline="alphabetic">Scrivi il testo</text><text x="0" y="42.519999999999996" font-family="Virgil, Segoe UI Emoji" font-size="20px" fill="#1e1e1e" text-anchor="start" style="white-space: pre;" direction="ltr" dominant-baseline="alphabetic">della domanda</text></g><g stroke-linecap="round"><g transform="translate(1788.3895399649623 1494.4892132658726) rotate(0 -123.69196603910882 10.755823133835634)"><path d="M1.08 -0.64 C-40.12 2.89, -206.81 17.38, -248.19 21.13 M0.18 1.64 C-40.54 5.34, -204.56 19.45, -245.9 22.46" stroke="#1971c2" stroke-width="1" fill="none"></path></g><g transform="translate(1788.3895399649623 1494.4892132658726) rotate(0 -123.69196603910882 10.755823133835634)"><path d="M-223.17 12.05 C-229.12 13.15, -233.57 17.04, -245.9 22.46 M-223.17 12.05 C-229.99 14.98, -237.48 18.76, -245.9 22.46" stroke="#1971c2" stroke-width="1" fill="none"></path></g><g transform="translate(1788.3895399649623 1494.4892132658726) rotate(0 -123.69196603910882 10.755823133835634)"><path d="M-221.8 29.1 C-228.03 26.55, -232.78 26.78, -245.9 22.46 M-221.8 29.1 C-229.09 26.44, -237.02 24.62, -245.9 22.46" stroke="#1971c2" stroke-width="1" fill="none"></path></g></g><mask></mask><g transform="translate(1814.3827792050647 1470.2886112147428) rotate(0 139.4250030517578 25)"><text x="0" y="17.52" font-family="Virgil, Segoe UI Emoji" font-size="20px" fill="#1971c2" text-anchor="start" style="white-space: pre;" direction="ltr" dominant-baseline="alphabetic">Magari una barra + numero?</text><text x="0" y="42.519999999999996" font-family="Virgil, Segoe UI Emoji" font-size="20px" fill="#1971c2" text-anchor="start" style="white-space: pre;" direction="ltr" dominant-baseline="alphabetic"></text></g><g stroke-linecap="round" transform="translate(1390.2053111456105 237.96877486511352) rotate(0 67.67205388371542 21.511646267671097)"><path d="M10.76 0 C53.97 0.04, 98.35 1.49, 124.59 0 M10.76 0 C36.67 -0.2, 61.13 -1.23, 124.59 0 M124.59 0 C130.83 -1.84, 135.69 4.88, 135.34 10.76 M124.59 0 C132.17 1.88, 133.54 4.51, 135.34 10.76 M135.34 10.76 C133.45 16.71, 137.08 19.34, 135.34 32.27 M135.34 10.76 C136.47 16.37, 134.64 23.32, 135.34 32.27 M135.34 32.27 C135.25 40.99, 132.61 43.94, 124.59 43.02 M135.34 32.27 C134.57 39.79, 131.17 42.06, 124.59 43.02 M124.59 43.02 C96.5 42.83, 68.62 43.73, 10.76 43.02 M124.59 43.02 C83.1 42.32, 41.03 42.33, 10.76 43.02 M10.76 43.02 C4.28 43.47, -1.98 37.51, 0 32.27 M10.76 43.02 C3.81 43.28, -0.83 37.26, 0 32.27 M0 32.27 C1.87 25.32, 0.58 20.36, 0 10.76 M0 32.27 C0.77 23.83, -0.5 16.9, 0 10.76 M0 10.76 C-0.3 5.35, 1.97 -1.17, 10.76 0 M0 10.76 C1.67 5.8, 5.8 2.23, 10.76 0" stroke="#e03131" stroke-width="1" fill="none"></path></g><g stroke-linecap="round" transform="translate(1543.2534800812077 233.81711012089767) rotate(0 47.50488550777368 21.959805564914234)"><path d="M10.98 0 C26.46 1.04, 44.28 -0.08, 84.03 0 M10.98 0 C37.12 -0.9, 62.88 -1.26, 84.03 0 M84.03 0 C91.69 1.29, 95.37 5.3, 95.01 10.98 M84.03 0 C89.55 0.93, 92.88 3.82, 95.01 10.98 M95.01 10.98 C96.53 16.03, 94.91 23.43, 95.01 32.94 M95.01 10.98 C94.33 16.72, 95.17 24.39, 95.01 32.94 M95.01 32.94 C95.86 41.18, 90.68 44.23, 84.03 43.92 M95.01 32.94 C94.42 39.29, 90.13 42.11, 84.03 43.92 M84.03 43.92 C68.6 45.87, 53.9 44.25, 10.98 43.92 M84.03 43.92 C59.87 42.21, 36.81 43.41, 10.98 43.92 M10.98 43.92 C1.68 41.99, 0.2 40.49, 0 32.94 M10.98 43.92 C2.83 41.74, -0.04 40.52, 0 32.94 M0 32.94 C0.4 28.22, 1.29 20.05, 0 10.98 M0 32.94 C-0.8 26.24, -0.28 18.88, 0 10.98 M0 10.98 C-1.62 2.49, 5.11 1.92, 10.98 0 M0 10.98 C2.21 5.89, 2.1 1.05, 10.98 0" stroke="#e03131" stroke-width="1" fill="none"></path></g><g stroke-linecap="round" transform="translate(1391.768561904776 308.21155346326026) rotate(0 67.22389458647217 46.16040761604427)"><path d="M23.08 0 C45.09 -0.67, 71.42 1.07, 111.37 0 M23.08 0 C53.19 -0.43, 84.4 1.14, 111.37 0 M111.37 0 C127.11 1.64, 132.88 8.5, 134.45 23.08 M111.37 0 C124.62 0.16, 133.18 5.5, 134.45 23.08 M134.45 23.08 C134.95 42.06, 134.6 59.55, 134.45 69.24 M134.45 23.08 C133.99 33.29, 134.47 42.41, 134.45 69.24 M134.45 69.24 C133.78 84.94, 126.24 91.48, 111.37 92.32 M134.45 69.24 C133.23 82.82, 124.8 92.36, 111.37 92.32 M111.37 92.32 C82.79 93.11, 52.12 93.26, 23.08 92.32 M111.37 92.32 C94.04 91.68, 75.02 90.49, 23.08 92.32 M23.08 92.32 C7.89 92.55, -0.72 82.73, 0 69.24 M23.08 92.32 C7.65 92.58, -0.99 86.81, 0 69.24 M0 69.24 C1.36 55.02, 0.66 45.22, 0 23.08 M0 69.24 C0.16 58, -0.5 44.41, 0 23.08 M0 23.08 C1.45 9.62, 9.62 1.94, 23.08 0 M0 23.08 C-1.56 8.74, 9.82 -0.63, 23.08 0" stroke="#e03131" stroke-width="1" fill="none"></path></g><g stroke-linecap="round" transform="translate(1542.3500857784738 313.58946503017813) rotate(0 48.84936339950309 43.02329253534219)"><path d="M21.51 0 C41.26 1.51, 59.59 0.01, 76.19 0 M21.51 0 C35.02 1.15, 48.37 1.32, 76.19 0 M76.19 0 C88.96 0.81, 95.84 7.31, 97.7 21.51 M76.19 0 C89.26 -2.19, 99.42 9.16, 97.7 21.51 M97.7 21.51 C97.48 35.59, 95.81 44.13, 97.7 64.53 M97.7 21.51 C98.11 32.4, 97.34 42.53, 97.7 64.53 M97.7 64.53 C97.19 78.04, 89.47 84.48, 76.19 86.05 M97.7 64.53 C95.75 78.92, 91.41 86.37, 76.19 86.05 M76.19 86.05 C55.72 86.26, 32.24 85.3, 21.51 86.05 M76.19 86.05 C64.16 85.2, 54.2 86.28, 21.51 86.05 M21.51 86.05 C6.45 84.15, -0.04 79.1, 0 64.53 M21.51 86.05 C6.18 88.23, -0.62 79.57, 0 64.53 M0 64.53 C0.48 50.83, -1.07 33.41, 0 21.51 M0 64.53 C-0.74 47.72, 0.79 33.05, 0 21.51 M0 21.51 C1.92 9.11, 5.82 0.91, 21.51 0 M0 21.51 C2.13 6.54, 8 -2.09, 21.51 0" stroke="#e03131" stroke-width="1" fill="none"></path></g><g transform="translate(1454.740249948624 256.79146534932573) rotate(0 0.00004999999998744897 0.00004999999999988347)" stroke="none"><path fill="#e03131" d="M 1.57,-1.57 Q 1.57,-1.57 1.77,-1.27 1.98,-0.98 2.09,-0.64 2.20,-0.29 2.19,0.05 2.18,0.41 2.05,0.75 1.93,1.09 1.70,1.37 1.48,1.65 1.18,1.84 0.87,2.04 0.52,2.12 0.18,2.21 -0.17,2.18 -0.53,2.15 -0.86,2.01 -1.19,1.87 -1.46,1.63 -1.73,1.39 -1.90,1.07 -2.08,0.76 -2.15,0.41 -2.21,0.05 -2.17,-0.29 -2.12,-0.65 -1.96,-0.97 -1.80,-1.29 -1.54,-1.54 -1.29,-1.80 -0.97,-1.96 -0.65,-2.12 -0.29,-2.17 0.06,-2.21 0.41,-2.15 0.76,-2.08 1.07,-1.90 1.39,-1.73 1.63,-1.46 1.87,-1.19 2.01,-0.86 2.15,-0.53 2.18,-0.17 2.21,0.18 2.12,0.52 2.03,0.87 1.84,1.18 1.65,1.48 1.37,1.70 1.09,1.93 0.75,2.05 0.41,2.18 0.05,2.19 -0.30,2.20 -0.64,2.09 -0.98,1.98 -1.27,1.77 -1.57,1.56 -1.57,1.57 -1.57,1.57 -1.73,1.35 -1.90,1.14 -2.01,0.90 -2.12,0.66 -2.16,0.39 -2.21,0.13 -2.20,-0.13 -2.18,-0.40 -2.10,-0.65 -2.02,-0.91 -1.88,-1.14 -1.74,-1.36 -1.55,-1.55 -1.36,-1.74 -1.14,-1.88 -0.91,-2.02 -0.65,-2.10 -0.40,-2.18 -0.13,-2.20 0.13,-2.21 0.39,-2.16 0.66,-2.12 0.90,-2.01 1.14,-1.90 1.35,-1.73 1.57,-1.57 1.57,-1.57 L 1.57,-1.57 Z"></path></g><g transform="translate(1454.740249948624 256.79146534932573) rotate(0 0.00004999999998744897 0.00004999999999988347)" stroke="none"><path fill="#e03131" d="M 1.57,-1.57 Q 1.57,-1.57 1.77,-1.27 1.98,-0.98 2.09,-0.64 2.20,-0.29 2.19,0.05 2.18,0.41 2.05,0.75 1.93,1.09 1.70,1.37 1.48,1.65 1.18,1.84 0.87,2.04 0.52,2.12 0.18,2.21 -0.17,2.18 -0.53,2.15 -0.86,2.01 -1.19,1.87 -1.46,1.63 -1.73,1.39 -1.90,1.07 -2.08,0.76 -2.15,0.41 -2.21,0.05 -2.17,-0.29 -2.12,-0.65 -1.96,-0.97 -1.80,-1.29 -1.54,-1.54 -1.29,-1.80 -0.97,-1.96 -0.65,-2.12 -0.29,-2.17 0.06,-2.21 0.41,-2.15 0.76,-2.08 1.07,-1.90 1.39,-1.73 1.63,-1.46 1.87,-1.19 2.01,-0.86 2.15,-0.53 2.18,-0.17 2.21,0.18 2.12,0.52 2.03,0.87 1.84,1.18 1.65,1.48 1.37,1.70 1.09,1.93 0.75,2.05 0.41,2.18 0.05,2.19 -0.30,2.20 -0.64,2.09 -0.98,1.98 -1.27,1.77 -1.57,1.56 -1.57,1.57 -1.57,1.57 -1.73,1.35 -1.90,1.14 -2.01,0.90 -2.12,0.66 -2.16,0.39 -2.21,0.13 -2.20,-0.13 -2.18,-0.40 -2.10,-0.65 -2.02,-0.91 -1.88,-1.14 -1.74,-1.36 -1.55,-1.55 -1.36,-1.74 -1.14,-1.88 -0.91,-2.02 -0.65,-2.10 -0.40,-2.18 -0.13,-2.20 0.13,-2.21 0.39,-2.16 0.66,-2.12 0.90,-2.01 1.14,-1.90 1.35,-1.73 1.57,-1.57 1.57,-1.57 L 1.57,-1.57 Z"></path></g><g transform="translate(1438.6065152478707 268.4436070776475) rotate(0 16.58189399799653 -12.548460322808126)" stroke="none"><path fill="#e03131" d="M -1.58,-1.11 Q -1.58,-1.11 0.28,-3.64 2.15,-6.16 4.05,-8.31 5.94,-10.46 7.76,-12.62 9.58,-14.77 11.98,-17.04 14.37,-19.30 16.48,-20.81 18.58,-22.31 20.82,-23.48 23.06,-24.66 24.24,-25.28 25.43,-25.89 27.30,-26.01 29.18,-26.13 30.19,-25.07 31.20,-24.01 31.88,-22.06 32.56,-20.11 33.19,-18.12 33.83,-16.13 34.12,-13.53 34.41,-10.93 34.51,-8.82 34.61,-6.71 34.75,-5.31 34.90,-3.91 33.34,-1.13 31.78,1.65 31.46,1.76 31.14,1.87 30.81,1.88 30.47,1.89 30.15,1.79 29.83,1.69 29.56,1.49 29.29,1.29 29.09,1.01 28.90,0.74 28.80,0.42 28.71,0.10 28.72,-0.23 28.73,-0.57 28.85,-0.88 28.97,-1.20 29.18,-1.46 29.39,-1.72 29.68,-1.90 29.96,-2.08 30.29,-2.15 30.61,-2.23 30.95,-2.20 31.28,-2.17 31.59,-2.04 31.90,-1.90 32.15,-1.68 32.40,-1.45 32.56,-1.16 32.72,-0.86 32.78,-0.53 32.84,-0.20 32.80,0.12 32.75,0.46 32.60,0.76 32.45,1.06 32.21,1.29 31.97,1.53 31.66,1.67 31.36,1.82 31.03,1.86 30.69,1.91 30.36,1.84 30.03,1.78 29.74,1.61 29.45,1.44 29.23,1.19 29.01,0.94 28.88,0.63 28.75,0.32 28.72,-0.01 28.70,-0.34 28.78,-0.67 28.86,-1.00 29.05,-1.28 29.23,-1.56 29.49,-1.77 29.76,-1.98 29.76,-1.98 29.76,-1.98 30.51,-2.87 31.25,-3.76 31.28,-5.13 31.31,-6.50 31.14,-8.49 30.98,-10.47 30.64,-12.66 30.30,-14.84 29.44,-16.83 28.59,-18.82 27.63,-20.84 26.68,-22.86 25.53,-22.52 24.37,-22.17 22.32,-21.07 20.27,-19.97 18.35,-18.56 16.44,-17.15 14.21,-14.97 11.99,-12.80 10.22,-10.57 8.46,-8.34 6.75,-6.24 5.05,-4.13 3.32,-1.51 1.58,1.11 1.43,1.28 1.27,1.45 1.08,1.59 0.88,1.72 0.67,1.80 0.45,1.88 0.21,1.91 -0.01,1.93 -0.24,1.90 -0.47,1.87 -0.69,1.79 -0.91,1.70 -1.10,1.57 -1.29,1.44 -1.44,1.26 -1.60,1.09 -1.70,0.88 -1.81,0.67 -1.87,0.44 -1.92,0.22 -1.92,-0.01 -1.92,-0.24 -1.86,-0.47 -1.80,-0.69 -1.69,-0.90 -1.58,-1.11 -1.58,-1.11 L -1.58,-1.11 Z"></path></g><g transform="translate(1450.2586569761927 256.79146534932573) rotate(0 10.75582313383552 2.240796486215743)" stroke="none"><path fill="#e03131" d="M 0.45,-1.97 Q 0.45,-1.97 3.78,-1.11 7.11,-0.24 9.55,0.41 12.00,1.06 14.30,1.62 16.61,2.17 18.71,2.37 20.81,2.58 21.09,2.66 21.36,2.75 21.60,2.92 21.83,3.09 22.00,3.32 22.16,3.56 22.25,3.84 22.33,4.11 22.32,4.40 22.31,4.69 22.21,4.96 22.11,5.23 21.92,5.45 21.74,5.68 21.50,5.83 21.25,5.98 20.97,6.05 20.69,6.12 20.41,6.09 20.12,6.07 19.85,5.95 19.59,5.84 19.38,5.64 19.16,5.45 19.02,5.20 18.88,4.94 18.83,4.66 18.78,4.38 18.82,4.09 18.86,3.81 18.99,3.55 19.12,3.29 19.32,3.09 19.53,2.89 19.79,2.76 20.05,2.63 20.33,2.60 20.62,2.56 20.90,2.62 21.19,2.67 21.44,2.82 21.69,2.96 21.88,3.18 22.07,3.39 22.18,3.66 22.29,3.92 22.32,4.21 22.34,4.50 22.27,4.78 22.19,5.06 22.04,5.30 21.88,5.54 21.65,5.72 21.43,5.90 21.16,6.00 20.88,6.09 20.60,6.10 20.31,6.11 20.31,6.11 20.31,6.11 18.12,5.69 15.93,5.28 13.57,4.82 11.21,4.36 8.75,3.85 6.28,3.33 2.91,2.65 -0.45,1.97 -0.68,1.89 -0.91,1.80 -1.11,1.67 -1.32,1.53 -1.48,1.35 -1.65,1.17 -1.76,0.96 -1.88,0.74 -1.94,0.51 -2.00,0.27 -2.01,0.02 -2.01,-0.21 -1.96,-0.45 -1.90,-0.69 -1.79,-0.90 -1.68,-1.12 -1.52,-1.31 -1.36,-1.49 -1.16,-1.63 -0.96,-1.78 -0.74,-1.87 -0.51,-1.96 -0.27,-1.99 -0.02,-2.02 0.21,-2.00 0.45,-1.97 0.45,-1.97 L 0.45,-1.97 Z"></path></g><g transform="translate(1564.7651263488792 266.9808981168907) rotate(0 7.61870805313356 -8.066867350376697)" stroke="none"><path fill="#e03131" d="M -2.13,-0.42 Q -2.13,-0.42 -1.91,-1.72 -1.70,-3.02 -1.34,-4.42 -0.98,-5.83 -0.51,-7.61 -0.04,-9.39 0.78,-11.53 1.61,-13.68 2.14,-15.14 2.67,-16.60 3.46,-18.28 4.25,-19.95 5.46,-21.58 6.67,-23.21 7.77,-24.30 8.88,-25.38 10.40,-26.01 11.93,-26.64 13.95,-26.81 15.98,-26.97 17.95,-27.13 19.91,-27.29 20.97,-26.61 22.02,-25.94 22.42,-23.69 22.81,-21.44 22.88,-20.32 22.95,-19.20 22.04,-17.41 21.13,-15.62 19.83,-14.37 18.53,-13.13 16.81,-12.08 15.08,-11.04 13.07,-10.53 11.06,-10.02 9.32,-9.64 7.57,-9.25 6.19,-9.01 4.81,-8.76 4.06,-8.88 3.30,-9.00 3.01,-8.99 2.72,-8.98 2.44,-9.05 2.16,-9.11 1.90,-9.24 1.64,-9.37 1.41,-9.55 1.19,-9.74 1.02,-9.98 0.85,-10.21 0.74,-10.48 0.63,-10.75 0.59,-11.04 0.55,-11.32 0.58,-11.61 0.61,-11.90 0.70,-12.18 0.80,-12.45 0.96,-12.69 1.12,-12.94 1.33,-13.13 1.54,-13.33 1.80,-13.47 2.05,-13.61 2.33,-13.69 2.61,-13.76 4.51,-13.93 6.41,-14.09 7.92,-14.10 9.43,-14.10 11.36,-14.01 13.28,-13.92 15.14,-13.87 16.99,-13.82 18.51,-13.58 20.03,-13.34 21.34,-12.69 22.64,-12.04 23.44,-10.37 24.24,-8.70 24.45,-7.22 24.66,-5.74 24.38,-3.65 24.11,-1.55 23.34,0.69 22.56,2.94 21.02,4.87 19.48,6.81 17.65,7.97 15.82,9.14 13.86,9.67 11.91,10.19 10.03,10.39 8.15,10.59 6.32,10.67 4.49,10.75 2.31,10.46 0.13,10.17 -1.60,9.83 -3.34,9.50 -4.99,9.37 -6.65,9.24 -6.96,9.15 -7.27,9.06 -7.53,8.87 -7.80,8.69 -7.99,8.43 -8.18,8.17 -8.28,7.86 -8.38,7.55 -8.37,7.23 -8.37,6.91 -8.26,6.60 -8.15,6.30 -7.95,6.05 -7.75,5.79 -7.48,5.61 -7.21,5.44 -6.90,5.36 -6.59,5.27 -6.27,5.30 -5.95,5.32 -5.65,5.44 -5.35,5.57 -5.11,5.78 -4.86,5.99 -4.70,6.27 -4.54,6.55 -4.47,6.87 -4.41,7.18 -4.45,7.50 -4.49,7.82 -4.63,8.11 -4.77,8.40 -4.99,8.64 -5.22,8.87 -5.51,9.01 -5.80,9.16 -6.11,9.21 -6.43,9.25 -6.75,9.20 -7.07,9.14 -7.35,8.99 -7.63,8.83 -7.85,8.59 -8.07,8.35 -8.20,8.06 -8.33,7.76 -8.36,7.44 -8.39,7.12 -8.32,6.81 -8.25,6.49 -8.07,6.22 -7.90,5.95 -7.65,5.74 -7.41,5.53 -7.10,5.42 -6.80,5.31 -6.48,5.29 -6.16,5.28 -6.16,5.28 -6.16,5.28 -4.36,5.58 -2.56,5.88 -1.01,6.25 0.52,6.63 2.43,6.79 4.34,6.95 6.06,6.88 7.78,6.81 9.41,6.67 11.04,6.52 12.48,6.23 13.93,5.94 15.25,5.19 16.58,4.43 17.61,3.06 18.64,1.69 19.06,-0.18 19.48,-2.06 19.60,-3.63 19.72,-5.20 19.43,-7.06 19.13,-8.92 18.06,-9.20 16.98,-9.47 15.14,-9.41 13.30,-9.35 11.39,-9.25 9.48,-9.15 8.02,-9.13 6.56,-9.11 4.93,-9.05 3.30,-9.00 3.01,-8.99 2.72,-8.98 2.44,-9.05 2.16,-9.11 1.90,-9.24 1.64,-9.37 1.41,-9.55 1.19,-9.74 1.02,-9.98 0.85,-10.21 0.74,-10.48 0.63,-10.75 0.59,-11.04 0.55,-11.32 0.58,-11.61 0.61,-11.90 0.70,-12.18 0.80,-12.45 0.96,-12.69 1.12,-12.94 1.33,-13.13 1.54,-13.33 1.80,-13.47 2.05,-13.61 2.33,-13.69 2.61,-13.76 3.44,-13.52 4.27,-13.28 5.39,-13.40 6.52,-13.52 8.25,-13.99 9.99,-14.46 11.31,-14.76 12.63,-15.06 13.90,-15.91 15.16,-16.76 16.05,-17.55 16.93,-18.34 17.48,-19.71 18.04,-21.08 18.65,-21.94 19.26,-22.81 17.81,-22.78 16.35,-22.74 13.94,-22.47 11.52,-22.20 10.67,-21.53 9.81,-20.85 8.84,-19.56 7.87,-18.26 7.16,-16.69 6.45,-15.11 5.87,-13.78 5.30,-12.45 4.75,-10.44 4.19,-8.44 3.83,-6.52 3.48,-4.59 3.10,-3.36 2.73,-2.13 2.43,-0.85 2.13,0.42 2.05,0.67 1.96,0.92 1.83,1.14 1.69,1.36 1.50,1.55 1.31,1.73 1.08,1.86 0.86,1.99 0.60,2.07 0.35,2.14 0.09,2.15 -0.16,2.16 -0.42,2.11 -0.68,2.06 -0.91,1.95 -1.15,1.84 -1.35,1.67 -1.56,1.51 -1.72,1.30 -1.87,1.09 -1.98,0.85 -2.08,0.61 -2.13,0.35 -2.17,0.09 -2.15,-0.16 -2.13,-0.42 -2.13,-0.42 L -2.13,-0.42 Z"></path></g><g transform="translate(1464.3703680581662 339.5827042702808) rotate(0 -17.926371889725942 5.8260708641607835)" stroke="none"><path fill="#e03131" d="M -1.15,1.61 Q -1.15,1.61 -2.89,0.26 -4.63,-1.09 -6.17,-1.52 -7.72,-1.95 -9.14,-2.11 -10.55,-2.26 -12.15,-2.33 -13.75,-2.40 -15.20,-2.40 -16.65,-2.40 -18.32,-1.98 -19.98,-1.57 -21.53,-1.09 -23.08,-0.61 -25.15,0.45 -27.22,1.53 -28.77,2.15 -30.32,2.77 -31.15,3.63 -31.97,4.49 -31.13,5.70 -30.29,6.91 -27.39,8.29 -24.50,9.67 -19.71,11.07 -14.91,12.46 -12.36,13.09 -9.80,13.71 -8.39,13.60 -6.98,13.49 -6.70,13.53 -6.42,13.58 -6.17,13.71 -5.92,13.84 -5.73,14.04 -5.53,14.25 -5.41,14.50 -5.29,14.76 -5.25,15.04 -5.22,15.32 -5.28,15.60 -5.34,15.87 -5.48,16.12 -5.63,16.36 -5.84,16.54 -6.05,16.73 -6.32,16.83 -6.58,16.94 -6.86,16.96 -7.14,16.98 -7.42,16.90 -7.69,16.83 -7.92,16.67 -8.16,16.52 -8.33,16.29 -8.50,16.07 -8.60,15.80 -8.69,15.53 -8.69,15.25 -8.69,14.97 -8.61,14.70 -8.52,14.43 -8.35,14.21 -8.18,13.98 -7.95,13.82 -7.71,13.66 -7.44,13.58 -7.17,13.50 -6.89,13.52 -6.61,13.53 -6.34,13.63 -6.08,13.73 -5.86,13.91 -5.64,14.10 -5.50,14.34 -5.35,14.58 -5.29,14.85 -5.22,15.13 -5.25,15.41 -5.28,15.69 -5.40,15.95 -5.51,16.21 -5.71,16.41 -5.90,16.62 -6.15,16.76 -6.40,16.89 -6.68,16.94 -6.95,16.99 -6.95,16.99 -6.95,16.99 -8.71,16.90 -10.47,16.82 -13.15,16.27 -15.82,15.72 -20.91,14.37 -26.00,13.01 -29.38,11.55 -32.77,10.10 -34.82,8.46 -36.87,6.82 -35.72,4.17 -34.58,1.52 -33.13,0.39 -31.68,-0.73 -30.31,-1.15 -28.94,-1.58 -26.57,-2.97 -24.20,-4.35 -22.57,-4.81 -20.94,-5.27 -18.76,-5.85 -16.58,-6.43 -15.05,-6.35 -13.53,-6.26 -11.76,-6.13 -9.99,-6.01 -8.33,-5.69 -6.68,-5.38 -4.63,-4.72 -2.58,-4.06 -0.71,-2.83 1.15,-1.61 1.33,-1.45 1.50,-1.29 1.64,-1.09 1.77,-0.89 1.85,-0.66 1.93,-0.44 1.96,-0.20 1.98,0.03 1.95,0.26 1.92,0.50 1.83,0.72 1.74,0.95 1.60,1.14 1.46,1.34 1.28,1.49 1.10,1.65 0.88,1.76 0.67,1.86 0.44,1.92 0.20,1.97 -0.03,1.97 -0.27,1.96 -0.50,1.90 -0.73,1.84 -0.94,1.73 -1.15,1.61 -1.15,1.61 L -1.15,1.61 Z"></path></g><g transform="translate(1572.8249179910076 366.47226210486946) rotate(0 9.859504539349246 -17.47821259248269)" stroke="none"><path fill="#e03131" d="M -1.90,0 Q -1.90,0 -1.82,-3.09 -1.74,-6.18 -1.42,-10.64 -1.10,-15.09 -0.16,-18.90 0.78,-22.71 1.45,-24.82 2.13,-26.93 2.64,-28.83 3.15,-30.73 3.56,-32.15 3.97,-33.57 4.97,-34.86 5.97,-36.14 7.83,-36.21 9.69,-36.27 12.61,-35.02 15.52,-33.77 18.22,-32.46 20.92,-31.14 23.37,-29.77 25.83,-28.41 27.48,-27.29 29.13,-26.18 30.47,-24.22 31.81,-22.25 32.48,-20.86 33.15,-19.47 33.18,-17.33 33.20,-15.18 32.93,-13.84 32.67,-12.51 30.70,-10.70 28.73,-8.90 26.86,-7.72 25.00,-6.55 22.69,-5.08 20.38,-3.61 17.23,-2.16 14.07,-0.72 10.32,0.15 6.56,1.04 3.40,1.40 0.23,1.76 -2.47,1.64 -5.17,1.53 -7.04,1.53 -8.91,1.54 -10.41,1.59 -11.91,1.64 -12.17,1.60 -12.43,1.55 -12.66,1.42 -12.89,1.29 -13.07,1.10 -13.25,0.90 -13.36,0.66 -13.47,0.42 -13.49,0.15 -13.51,-0.10 -13.45,-0.36 -13.39,-0.62 -13.25,-0.84 -13.11,-1.07 -12.90,-1.23 -12.70,-1.40 -12.45,-1.50 -12.20,-1.59 -11.94,-1.60 -11.67,-1.61 -11.42,-1.53 -11.17,-1.46 -10.95,-1.30 -10.73,-1.15 -10.58,-0.94 -10.42,-0.72 -10.34,-0.47 -10.26,-0.22 -10.26,0.04 -10.27,0.30 -10.36,0.55 -10.45,0.80 -10.61,1.01 -10.78,1.22 -11.00,1.36 -11.22,1.51 -11.48,1.57 -11.73,1.64 -12.00,1.62 -12.26,1.60 -12.51,1.50 -12.75,1.39 -12.95,1.22 -13.15,1.04 -13.28,0.82 -13.41,0.59 -13.46,0.33 -13.52,0.07 -13.48,-0.19 -13.45,-0.45 -13.33,-0.69 -13.22,-0.93 -13.03,-1.12 -12.85,-1.30 -12.61,-1.42 -12.38,-1.54 -12.11,-1.58 -11.85,-1.62 -11.85,-1.62 -11.85,-1.62 -10.35,-1.51 -8.84,-1.41 -6.95,-1.32 -5.06,-1.23 -2.58,-1.14 -0.09,-1.04 2.90,-1.41 5.89,-1.78 9.35,-2.62 12.81,-3.46 15.72,-4.85 18.64,-6.24 20.89,-7.80 23.15,-9.36 24.76,-10.46 26.37,-11.57 28.02,-13.43 29.67,-15.29 29.78,-16.79 29.90,-18.29 29.57,-19.41 29.24,-20.54 28.24,-22.06 27.23,-23.58 25.78,-24.60 24.34,-25.62 21.93,-26.86 19.52,-28.09 16.83,-29.26 14.15,-30.42 10.65,-31.41 7.15,-32.41 6.60,-31.17 6.04,-29.93 5.50,-28.00 4.96,-26.07 4.37,-24.03 3.78,-21.99 2.96,-18.44 2.13,-14.89 1.94,-10.54 1.74,-6.18 1.82,-3.09 1.90,0 1.87,0.22 1.84,0.45 1.76,0.67 1.68,0.88 1.55,1.07 1.42,1.26 1.25,1.41 1.08,1.56 0.87,1.67 0.67,1.77 0.45,1.83 0.22,1.88 -0.00,1.88 -0.22,1.88 -0.45,1.83 -0.67,1.77 -0.87,1.67 -1.08,1.56 -1.25,1.41 -1.42,1.26 -1.55,1.07 -1.68,0.88 -1.76,0.66 -1.84,0.45 -1.87,0.22 -1.90,-0.00 -1.90,-0.00 L -1.90,0 Z"></path></g><g stroke-linecap="round"><g transform="translate(1893.2588155198582 297.0075710321816) rotate(0 -116.5214172832184 2.68895578345888)"><path d="M-0.06 0.52 C-39.22 1.51, -195.28 5.03, -233.92 5.73 M-1.55 -0.25 C-40.42 0.39, -193.24 2.81, -231.67 3.79" stroke="#1971c2" stroke-width="1" fill="none"></path></g><g transform="translate(1893.2588155198582 297.0075710321816) rotate(0 -116.5214172832184 2.68895578345888)"><path d="M-208.35 -5.23 C-216.49 -3.22, -225.78 3.6, -231.67 3.79 M-208.35 -5.23 C-214.68 -2.5, -218.94 -1.89, -231.67 3.79" stroke="#1971c2" stroke-width="1" fill="none"></path></g><g transform="translate(1893.2588155198582 297.0075710321816) rotate(0 -116.5214172832184 2.68895578345888)"><path d="M-208.01 11.87 C-216.25 7.28, -225.67 7.51, -231.67 3.79 M-208.01 11.87 C-214.56 10.47, -218.9 6.95, -231.67 3.79" stroke="#1971c2" stroke-width="1" fill="none"></path></g></g><mask></mask><g stroke-linecap="round" transform="translate(1371.6013935288343 226.19840206776422) rotate(0 139.37754144261896 95.90608961003363)"><path d="M32 0 C116.25 -2.44, 199.98 -0.68, 246.76 0 M32 0 C104.77 -1.35, 175.26 -0.39, 246.76 0 M246.76 0 C267.87 -1.69, 279.13 10.89, 278.76 32 M246.76 0 C267.77 -1.24, 279.7 9.33, 278.76 32 M278.76 32 C275.99 78.05, 278.7 127.78, 278.76 159.81 M278.76 32 C277.91 71.52, 277.52 112.41, 278.76 159.81 M278.76 159.81 C280.18 180.89, 266.67 193.29, 246.76 191.81 M278.76 159.81 C279.44 183.07, 269.8 191.1, 246.76 191.81 M246.76 191.81 C167.61 192.46, 90.69 194.38, 32 191.81 M246.76 191.81 C192.58 190.54, 140.58 190.15, 32 191.81 M32 191.81 C10.38 190.82, 0.84 181.78, 0 159.81 M32 191.81 C10.11 190.67, 2.11 180.86, 0 159.81 M0 159.81 C0.95 113.47, -0.61 69.42, 0 32 M0 159.81 C-1.7 115.98, -1.5 72.01, 0 32 M0 32 C1.92 11.63, 10.02 -0.01, 32 0 M0 32 C-0.79 10.68, 9.56 -1, 32 0" stroke="#1971c2" stroke-width="1" fill="none"></path></g><g transform="translate(1910.2888688150979 285.35542930385975) rotate(0 82.57499694824219 12.5)"><text x="0" y="17.52" font-family="Virgil, Segoe UI Emoji" font-size="20px" fill="#1971c2" text-anchor="start" style="white-space: pre;" direction="ltr" dominant-baseline="alphabetic">textbox risposte</text></g><g stroke-linecap="round"><g transform="translate(1875.217750415229 73.60193028353422) rotate(0 -89.18370015138657 38.09354026566757)"><path d="M-0.94 -0.99 C-31.02 11.56, -149.66 62.28, -179.35 75.24 M0.77 1.11 C-29.05 13.78, -147.6 64.02, -177.16 76.27" stroke="#1e1e1e" stroke-width="2" fill="none"></path></g><g transform="translate(1875.217750415229 73.60193028353422) rotate(0 -89.18370015138657 38.09354026566757)"><path d="M-158.81 59.3 C-167.75 64.25, -174.97 71.4, -177.16 76.27 M-158.81 59.3 C-164.32 65.13, -170.37 70.26, -177.16 76.27" stroke="#1e1e1e" stroke-width="2" fill="none"></path></g><g transform="translate(1875.217750415229 73.60193028353422) rotate(0 -89.18370015138657 38.09354026566757)"><path d="M-152.19 75.06 C-163.75 73.7, -173.6 74.6, -177.16 76.27 M-152.19 75.06 C-160.11 75.47, -168.44 75.17, -177.16 76.27" stroke="#1e1e1e" stroke-width="2" fill="none"></path></g></g><mask></mask><g transform="translate(1884.2956295749955 44.245727387046145) rotate(0 128.1999969482422 50)"><text x="0" y="17.52" font-family="Virgil, Segoe UI Emoji" font-size="20px" fill="#1e1e1e" text-anchor="start" style="white-space: pre;" direction="ltr" dominant-baseline="alphabetic">Struttura simile</text><text x="0" y="42.519999999999996" font-family="Virgil, Segoe UI Emoji" font-size="20px" fill="#1e1e1e" text-anchor="start" style="white-space: pre;" direction="ltr" dominant-baseline="alphabetic">alla sezione risponder</text><text x="0" y="67.52" font-family="Virgil, Segoe UI Emoji" font-size="20px" fill="#1e1e1e" text-anchor="start" style="white-space: pre;" direction="ltr" dominant-baseline="alphabetic">alle domande per unificare</text><text x="0" y="92.52" font-family="Virgil, Segoe UI Emoji" font-size="20px" fill="#1e1e1e" text-anchor="start" style="white-space: pre;" direction="ltr" dominant-baseline="alphabetic">i design</text></g><g stroke-linecap="round"><g transform="translate(1130.9210736295397 397.65303981163436) rotate(0 87.56589969742197 -91.26586729027065)"><path d="M-0.77 0.85 C28.77 -29.65, 146.82 -152.22, 176.19 -182.82 M1.02 0.26 C30.6 -30.09, 146.83 -151.13, 175.8 -181.43" stroke="#1e1e1e" stroke-width="2" fill="none"></path></g><g transform="translate(1130.9210736295397 397.65303981163436) rotate(0 87.56589969742197 -91.26586729027065)"><path d="M165.72 -158.55 C169.21 -161.51, 169.43 -167.56, 175.8 -181.43 M165.72 -158.55 C168.78 -165.66, 170.37 -171.32, 175.8 -181.43" stroke="#1e1e1e" stroke-width="2" fill="none"></path></g><g transform="translate(1130.9210736295397 397.65303981163436) rotate(0 87.56589969742197 -91.26586729027065)"><path d="M153.37 -170.39 C159.48 -170.79, 162.28 -174.36, 175.8 -181.43 M153.37 -170.39 C160.05 -174.24, 165.12 -176.54, 175.8 -181.43" stroke="#1e1e1e" stroke-width="2" fill="none"></path></g></g><mask></mask><g transform="translate(365.59460536481265 455.4667854715999) rotate(0 17.00653207478379 1.0703411795318516)" stroke="none"><path fill="#1e1e1e" d="M 0.42,-2.25 Q 0.42,-2.25 1.86,-1.99 3.30,-1.73 4.55,-1.58 5.79,-1.44 7.18,-1.30 8.58,-1.17 9.81,-1.13 11.04,-1.10 12.40,-1.20 13.76,-1.30 15.83,-1.24 17.91,-1.17 19.70,-1.10 21.50,-1.03 22.59,-1.00 23.67,-0.97 24.98,-0.90 26.30,-0.82 27.68,-0.73 29.07,-0.63 31.40,-0.48 33.74,-0.33 34.12,-0.24 34.51,-0.15 34.85,0.05 35.18,0.26 35.43,0.57 35.69,0.87 35.83,1.24 35.97,1.62 35.98,2.01 36.00,2.41 35.89,2.79 35.77,3.17 35.55,3.49 35.32,3.82 35.00,4.05 34.68,4.29 34.30,4.41 33.92,4.53 33.53,4.52 33.13,4.52 32.75,4.39 32.38,4.25 32.07,4.01 31.76,3.76 31.54,3.43 31.32,3.10 31.22,2.71 31.12,2.33 31.15,1.93 31.18,1.54 31.33,1.17 31.48,0.81 31.75,0.51 32.01,0.21 32.35,0.01 32.69,-0.18 33.08,-0.26 33.47,-0.34 33.87,-0.29 34.26,-0.24 34.62,-0.07 34.97,0.10 35.26,0.37 35.54,0.65 35.72,1.01 35.90,1.36 35.96,1.75 36.02,2.14 35.95,2.53 35.88,2.93 35.68,3.27 35.49,3.62 35.20,3.89 34.91,4.16 34.55,4.32 34.18,4.48 33.79,4.51 33.39,4.55 33.39,4.55 33.39,4.55 31.04,4.33 28.68,4.10 27.30,3.97 25.92,3.84 23.65,3.55 21.38,3.26 19.70,3.24 18.01,3.22 16.06,3.37 14.12,3.53 12.46,3.65 10.81,3.77 9.45,3.68 8.09,3.59 6.60,3.43 5.12,3.27 3.78,3.05 2.43,2.82 1.00,2.54 -0.42,2.25 -0.69,2.17 -0.95,2.08 -1.19,1.94 -1.42,1.79 -1.62,1.60 -1.81,1.40 -1.95,1.16 -2.10,0.92 -2.18,0.66 -2.26,0.39 -2.27,0.12 -2.29,-0.15 -2.23,-0.42 -2.18,-0.69 -2.07,-0.95 -1.95,-1.20 -1.78,-1.41 -1.61,-1.63 -1.39,-1.80 -1.17,-1.97 -0.92,-2.08 -0.66,-2.19 -0.39,-2.24 -0.12,-2.29 0.15,-2.27 0.42,-2.25 0.42,-2.25 L 0.42,-2.25 Z"></path></g><g transform="translate(362.02680143303985 467.5973188396275) rotate(0 20.217555613379318 1.4271215727091402)" stroke="none"><path fill="#1e1e1e" d="M 0.15,-2.22 Q 0.15,-2.22 2.13,-2.00 4.10,-1.78 5.53,-1.76 6.96,-1.74 8.95,-1.57 10.95,-1.40 12.96,-1.24 14.97,-1.07 16.68,-1.04 18.40,-1.00 19.88,-1.03 21.36,-1.06 22.66,-1.05 23.97,-1.03 25.15,-0.99 26.33,-0.95 27.51,-0.89 28.69,-0.82 30.33,-0.68 31.97,-0.53 33.24,-0.49 34.51,-0.45 37.30,-0.28 40.10,-0.11 40.57,-0.01 41.03,0.08 41.44,0.33 41.85,0.57 42.16,0.93 42.47,1.29 42.65,1.73 42.83,2.18 42.86,2.65 42.89,3.13 42.76,3.59 42.64,4.05 42.37,4.45 42.11,4.84 41.73,5.13 41.35,5.42 40.90,5.58 40.45,5.73 39.97,5.73 39.50,5.74 39.04,5.59 38.59,5.44 38.21,5.15 37.83,4.86 37.56,4.47 37.29,4.08 37.16,3.62 37.03,3.16 37.05,2.68 37.08,2.21 37.25,1.76 37.42,1.32 37.73,0.95 38.04,0.59 38.44,0.34 38.85,0.09 39.32,-0.00 39.78,-0.11 40.26,-0.06 40.73,-0.01 41.16,0.18 41.60,0.38 41.95,0.70 42.29,1.03 42.52,1.45 42.75,1.87 42.83,2.34 42.90,2.81 42.83,3.28 42.76,3.75 42.53,4.18 42.31,4.60 41.97,4.93 41.62,5.26 41.19,5.46 40.76,5.66 40.29,5.72 39.81,5.77 39.81,5.77 39.81,5.77 37.93,5.61 36.04,5.45 34.60,5.15 33.16,4.85 32.07,4.65 30.97,4.46 29.61,4.14 28.25,3.82 27.09,3.66 25.93,3.50 24.82,3.35 23.71,3.19 22.51,3.05 21.31,2.91 19.81,2.84 18.30,2.77 16.53,2.71 14.77,2.65 12.76,2.60 10.76,2.56 8.78,2.54 6.79,2.52 5.31,2.42 3.82,2.32 1.83,2.27 -0.15,2.22 -0.41,2.17 -0.68,2.12 -0.92,2.00 -1.16,1.89 -1.37,1.72 -1.58,1.56 -1.75,1.34 -1.91,1.13 -2.02,0.89 -2.13,0.64 -2.17,0.37 -2.22,0.11 -2.20,-0.15 -2.18,-0.41 -2.10,-0.67 -2.02,-0.93 -1.88,-1.15 -1.74,-1.38 -1.54,-1.57 -1.35,-1.76 -1.12,-1.90 -0.89,-2.03 -0.63,-2.11 -0.38,-2.19 -0.11,-2.20 0.15,-2.22 0.15,-2.22 L 0.15,-2.22 Z"></path></g><g transform="translate(358.22114390581555 480.2035593985581) rotate(0 19.741848422476266 2.259609156789452)" stroke="none"><path fill="#1e1e1e" d="M 0.60,-2.14 Q 0.60,-2.14 2.75,-1.41 4.91,-0.68 6.23,-0.41 7.55,-0.14 8.91,0.01 10.27,0.17 11.81,0.31 13.34,0.46 15.06,0.68 16.77,0.90 18.38,0.98 19.98,1.07 21.66,1.18 23.35,1.29 24.78,1.30 26.20,1.32 27.29,1.28 28.38,1.24 30.11,1.21 31.85,1.19 33.94,1.36 36.03,1.54 37.69,1.62 39.35,1.71 39.79,1.80 40.24,1.89 40.63,2.12 41.02,2.35 41.32,2.69 41.61,3.03 41.79,3.45 41.96,3.87 41.99,4.32 42.02,4.77 41.90,5.21 41.79,5.65 41.54,6.03 41.29,6.40 40.93,6.68 40.58,6.96 40.15,7.11 39.72,7.26 39.27,7.27 38.82,7.27 38.38,7.13 37.95,6.99 37.59,6.72 37.23,6.45 36.97,6.08 36.71,5.71 36.58,5.28 36.45,4.84 36.47,4.39 36.49,3.94 36.65,3.51 36.82,3.09 37.11,2.74 37.39,2.39 37.78,2.16 38.16,1.92 38.61,1.81 39.05,1.71 39.50,1.75 39.95,1.80 40.36,1.98 40.77,2.17 41.11,2.47 41.44,2.78 41.66,3.18 41.87,3.58 41.95,4.02 42.03,4.47 41.96,4.92 41.90,5.36 41.69,5.77 41.48,6.17 41.16,6.49 40.83,6.80 40.42,7.00 40.02,7.19 39.57,7.25 39.12,7.30 39.12,7.30 39.12,7.30 36.40,6.89 33.69,6.47 32.50,6.34 31.32,6.20 29.81,6.02 28.30,5.83 27.19,5.75 26.07,5.68 24.58,5.60 23.08,5.52 21.42,5.42 19.76,5.32 18.01,5.24 16.26,5.15 14.58,4.97 12.91,4.78 11.29,4.61 9.66,4.44 8.11,4.18 6.55,3.92 5.19,3.53 3.83,3.14 1.61,2.64 -0.60,2.14 -0.85,2.04 -1.10,1.94 -1.31,1.78 -1.53,1.62 -1.70,1.41 -1.87,1.20 -1.99,0.96 -2.11,0.72 -2.16,0.46 -2.22,0.19 -2.21,-0.07 -2.20,-0.34 -2.13,-0.60 -2.06,-0.85 -1.92,-1.09 -1.79,-1.32 -1.61,-1.52 -1.42,-1.71 -1.19,-1.86 -0.97,-2.00 -0.71,-2.09 -0.46,-2.18 -0.19,-2.20 0.07,-2.23 0.33,-2.19 0.60,-2.14 0.60,-2.14 L 0.60,-2.14 Z"></path></g><g stroke-linecap="round"><g transform="translate(361.03917095222937 468.87908045109964) rotate(0 -117.37872278715167 -68.01383937199442)"><path d="M1.07 -0.14 C-38.01 -23.03, -195.66 -113.93, -234.8 -136.77 M0.17 -1.27 C-39.04 -24.06, -196.73 -113.09, -235.77 -135.62" stroke="#1e1e1e" stroke-width="1" fill="none"></path></g><g transform="translate(361.03917095222937 468.87908045109964) rotate(0 -117.37872278715167 -68.01383937199442)"><path d="M-211.13 -131.41 C-218.05 -132.4, -225.71 -131.87, -235.77 -135.62 M-211.13 -131.41 C-215.51 -132.63, -220.88 -133.64, -235.77 -135.62" stroke="#1e1e1e" stroke-width="1" fill="none"></path></g><g transform="translate(361.03917095222937 468.87908045109964) rotate(0 -117.37872278715167 -68.01383937199442)"><path d="M-219.6 -116.55 C-224.3 -121.64, -229.66 -125.12, -235.77 -135.62 M-219.6 -116.55 C-222.31 -120.78, -225.92 -124.88, -235.77 -135.62" stroke="#1e1e1e" stroke-width="1" fill="none"></path></g></g><mask></mask><g transform="translate(10 286.7775105196307) rotate(0 189.81666564941406 25)"><text x="0" y="17.52" font-family="Virgil, Segoe UI Emoji" font-size="20px" fill="#1e1e1e" text-anchor="start" style="white-space: pre;" direction="ltr" dominant-baseline="alphabetic">Menu generale, login e impostazioni app</text><text x="0" y="42.519999999999996" font-family="Virgil, Segoe UI Emoji" font-size="20px" fill="#1e1e1e" text-anchor="start" style="white-space: pre;" direction="ltr" dominant-baseline="alphabetic">Apribile con slide gesture</text></g></svg>